<svg enable-background="new 0 0 6000 4000" viewBox="0 0 6000 4000" xmlns="http://www.w3.org/2000/svg" xmlns:xlink="http://www.w3.org/1999/xlink"><clipPath id="a"><path d="m1428.9 2252.8c-66.8 49.8-43.4 242.8-57.1 293.2-6.1 22.7-21.7 20.1-37.5 17.5-19.4-3.2-39-6.4-41.8 37-5.1 78.8-41.2 221.5 34.5 342.1s392.3 91.2 409.2-17.9c16.9-109.2-64.5-55.9-107.6-116.7-43.1-60.9 43.6-79.3 14-131.2s-62.7-26-62.7-26 10.3-10.6 18.3-43.6-12.2-76-58.5-101.9 8.2-150.3 5.8-180.7c-3-37.1-30.4-88.4-73-88.4-13.2-.1-27.8 4.8-43.6 16.6"/></clipPath><linearGradient id="b" gradientTransform="matrix(83.0953 230.1886 227.9317 -87.5977 -783054.938 -175754.031)" gradientUnits="userSpaceOnUse" x1="1828.402" x2="1832.798" y1="2774.595" y2="2774.595"><stop offset="0" stop-color="#b6f2f0"/><stop offset=".13" stop-color="#b6f2f0"/><stop offset=".258" stop-color="#90dbd9"/><stop offset=".402" stop-color="#6dc6c4"/><stop offset=".548" stop-color="#52b5b4"/><stop offset=".696" stop-color="#3ea9a8"/><stop offset=".845" stop-color="#33a2a1"/><stop offset="1" stop-color="#2fa09f"/></linearGradient><clipPath><path d="m1119.5 2074h778.1v1107.7h-778.1z"/></clipPath><clipPath><path d="m1119.5 2074h778.1v1107.7h-778.1z"/></clipPath><clipPath id="c"><path d="m1428.9 2252.8c-66.8 49.8-43.4 242.8-57.1 293.2-6.1 22.7-21.7 20.1-37.5 17.5-19.4-3.2-39-6.4-41.8 37-5.1 78.8-41.2 221.5 34.5 342.1s392.3 91.2 409.2-17.9c16.9-109.2-64.5-55.9-107.6-116.7-43.1-60.9 43.6-79.3 14-131.2s-62.7-26-62.7-26 10.3-10.6 18.3-43.6-12.2-76-58.5-101.9 29.6-139.4 29.6-178.3c0-24.3-46.6-88.5-99.3-88.5-13.6-.1-27.5 4.1-41.1 14.3"/></clipPath><clipPath id="d"><path d="m4973 1998.1c9.6 46.9-52.9 266.3-130.9 299-78 32.8-117.7 96.5-111 149.1s21.1 70.8 21.1 70.8-47.7-45.6-103.9 30.4c-56.2 76.1 77.6 118.7-1.6 206.5-79.3 87.7-198.3-8.3-191.3 164.3s307.5 201.2 449.1 25.7 305.5-335.2 311.7-458.6c3.4-68-28.3-66.2-59.5-64.4-25.4 1.5-50.5 3-56.1-33.3-12.5-80.7 59.4-377.2-37.3-465.5-25.2-23-44-32-57.9-32-39.8 0-39.5 73.3-32.4 108"/></clipPath><linearGradient id="e" gradientTransform="matrix(-184.0428806 66.4882003 66.4882003 184.0428806 156063.213898 -631430.497977)" gradientUnits="userSpaceOnUse" x1="1822.812" x2="1827.208" y1="2784.279" y2="2784.279"><stop offset="0" stop-color="#b6f2f0"/><stop offset=".304" stop-color="#b6f2f0"/><stop offset=".406" stop-color="#90dbd9"/><stop offset=".522" stop-color="#6dc6c4"/><stop offset=".639" stop-color="#52b5b4"/><stop offset=".757" stop-color="#3ea9a8"/><stop offset=".876" stop-color="#33a2a1"/><stop offset="1" stop-color="#2fa09f"/></linearGradient><clipPath><path d="m4293.7 1731.5h1081.4v1490.2h-1081.4z"/></clipPath><clipPath><path d="m4293.7 1731.5h1081.4v1490.2h-1081.4z"/></clipPath><clipPath id="f"><path d="m4973 1998.1c9.6 46.9-52.9 266.3-130.9 299-78 32.8-117.7 96.5-111 149.1s21.1 70.8 21.1 70.8-47.7-45.6-103.9 30.4c-56.2 76.1 77.6 118.7-1.6 206.5-79.3 87.7-198.3-8.3-191.3 164.3s307.5 201.2 449.1 25.7 305.5-335.2 311.7-458.6c3.4-68-28.3-66.2-59.5-64.4-25.4 1.5-50.5 3-56.1-33.3-12.5-80.7 59.4-377.2-37.3-465.5-25.2-23-44-32-57.9-32-39.8 0-39.5 73.3-32.4 108"/></clipPath><clipPath><path d="m2697 205h2277v1745.1h-2277z"/></clipPath><clipPath><path d="m2697 205h2277v1745.1h-2277z"/></clipPath><clipPath><path d="m1901.4 1497.4h681.4v1916.6h-681.4z"/></clipPath><clipPath><path d="m1901.4 1497.4h681.4v1916.6h-681.4z"/></clipPath><clipPath><path d="m1329.9 1528.1h909.9v1846.2h-909.9z"/></clipPath><clipPath><path d="m1329.9 1528.1h909.9v1846.2h-909.9z"/></clipPath><clipPath><path d="m1576.1 934.7h852.8v1151.7h-852.8z"/></clipPath><clipPath><path d="m1576.1 934.7h852.8v1151.7h-852.8z"/></clipPath><clipPath id="g"><path d="m2067.5 1014.8c-2 15.1-20.9 52.3-75.6 131.7-2 11 19.6 39.3 71.1 38.4 1.6-31.1 50.3-131.7 50.3-131.7.7-17.1-29.3-42.3-41.2-42.3-2.5-0-4.2 1.2-4.6 3.9"/></clipPath><linearGradient id="h"><stop offset="0" stop-color="#ffc7d0"/><stop offset="1" stop-color="#e65e75"/></linearGradient><linearGradient id="i" gradientTransform="matrix(27.6584 0 0 -27.6584 -47501.008 78803.195)" gradientUnits="userSpaceOnUse" x1="1789.428" x2="1793.823" xlink:href="#h" y1="2809.447" y2="2809.447"/><clipPath id="j"><path d="m2058.5 969c-10.6 49.5 34.8 134.1 92.4 133.7 69.1-20 52.7-154.2 52.7-154.2-1.4-5.6-14.9-13.1-38.9-13.1-24.7.1-60.6 7.9-106.2 33.6"/></clipPath><linearGradient id="k" gradientTransform="matrix(33.7582 0 0 -33.7582 -58654.871 95748.758)" gradientUnits="userSpaceOnUse" x1="1798.432" x2="1802.828" xlink:href="#h" y1="2806.117" y2="2806.117"/><clipPath id="l"><path d="m2777.7 1048.3c-49.5 49.2-71 118.9 26.3 80.9 17.6-13.2 40.9-36.6 34.9-60.5-1.3-2.7-2.3-5.7-.9-8.6 18.1-31.3 9.5-43.5-6.7-43.5-16.8-0-41.7 13.1-53.6 31.7"/></clipPath><linearGradient id="m" gradientTransform="matrix(-69.14882254 85.18780798 85.18780798 69.14882254 -106945.275957 -346430.422724)" gradientUnits="userSpaceOnUse" x1="1827.103" x2="1831.499" xlink:href="#h" y1="2772.617" y2="2772.617"/><clipPath id="n"><path d="m1895.1 1743.8c-4.9 4.5 1.6 16.4-12 40.5s5.5 56.4 55.3 42.5c49.9-13.9 0-89.1 0-89.1-2.3-4-6.7-5.5-11.7-5.5-12-.1-28.1 8.4-31.6 11.6"/></clipPath><linearGradient id="o" gradientTransform="matrix(51.32626285 96.95071667 96.95071667 -51.32626285 -360483.273028 -32750.849982)" gradientUnits="userSpaceOnUse" x1="1823.266" x2="1827.662" xlink:href="#h" y1="2772.457" y2="2772.457"/><path d="m1038 3603c149.5-4.4 298.9-79.1 444-39.6 307.7 83.5 606.6 96.7 914.3 13.2 171.4-44 356.1 48.4 523.1-8.8 109.9-39.6 219.8-96.7 329.7-61.5 263.7 83.5 527.5 57.1 795.6 65.9 26.4 0 57.1 17.6 83.5 22 114.3 13.2 219.8-30.8 325.3-26.4 96.7 4.4 193.4-26.4 276.9-65.9 44-22 118.7 13.2 180.2 0 30.8-8.8 70.3-30.8 74.7-57.1 3.7-45.1 9-90.6 17.9-135.1-167.8-34.2-404.7-61.7-671.7-89.1-1455.2-149.4-3634.7-234-3780.2 115.4-48.2 115.9 84.8 196.2 290.7 277.9 67-.3 135.1-7.6 196-10.9" fill="#91b9ec"/><path d="m5260.4 3426.8c-6.1-48.3-102.1-85.6-257.2-117.2-8.8 44.5-14.2 90-17.9 135.1-4.4 26.4-44 48.4-74.7 57.1-61.5 13.2-136.3-22-180.2 0-83.5 39.6-180.2 70.3-276.9 65.9-105.5-4.4-211 39.6-325.3 26.4-26.4-4.4-57.1-22-83.5-22-268.1-8.8-531.9 17.6-795.6-65.9-109.9-35.2-219.8 22-329.7 61.5-167 57.1-351.7-35.2-523.1 8.8-307.7 83.5-606.6 70.3-914.3-13.2-145.1-39.6-294.5 35.2-444 39.6-60.9 3.4-128.9 10.6-195.9 10.8 34.1 13.5 70.2 27.1 107.8 40.9 127.6 46.7 241.9 56.1 297.5 60.2 595 43.5 1143.2-36.6 1578.5-51.6 758.6-26.1 775.9 159.3 1432.8 90.3 482-50.6 1016.9-207.6 1001.7-326.7" fill="#bfdaef"/><path clip-path="url(#a)" d="m1692 2066.7 323.3 895.7-702.9 270.1-323.3-895.7z" fill="url(#b)"/><path clip-path="url(#c)" d="m1642.6 2927.4c-42.4-3.5-67.8-46.1-86.4-79.4-19.6-35.1-36.8-71.5-51.8-108.7-30.5-75.7-51.7-155.1-64.1-235.8-7.2-46.9-11.2-94.2-12.4-141.6-.1-2.3-3.6-2.3-3.6 0 2 85.6 13.8 171 35.5 253.8 20.9 79.9 51.1 157.6 91 230 19.7 35.8 46.2 81.5 91.7 85.3 2.4.2 2.4-3.4.1-3.6" fill="#2d65af"/><path clip-path="url(#c)" d="m1402.4 2620.9c13.4 15.8 25.9 32.3 37.6 49.5 2.8 4.1 5.6 8.2 8.3 12.4 2 3.2 4 7.2 7.3 9.3 3.1 2 7.3 1.5 10.9 1.5 5.4.1 10.8.2 16.2.3 2.3 0 2.3-3.5 0-3.6-4.7-.1-9.3-.2-14-.2-5.2-.1-10.4.8-13.9-3.9-5.6-7.7-10.4-16-15.9-23.7-10.6-15.2-22-29.9-34-44.1-1.4-1.8-4 .8-2.5 2.5m109.6 133.5c1-9.5 5.3-18.8 7.7-28 2.4-9 4.4-18 5.9-27.2 3.1-18.2 4.6-36.6 4.5-55 0-2.3-3.6-2.3-3.6 0 .1 19.5-1.5 38.9-5.1 58.1-1.7 9.1-3.8 18.1-6.3 27.1-2.3 8.3-5.8 16.4-6.8 25-.1 2.3 3.5 2.3 3.7 0m-61.4 8.1c15.1 9.1 29.3 19.8 42.2 31.8 5.8 5.4 11 12.3 17.7 16.6 6.9 4.4 15.8 2.4 22.6 7 1.9 1.3 3.7-1.8 1.8-3.1-6.7-4.5-15.3-2.6-22.1-6.6-3.9-2.3-6.9-6-10.1-9.2-3.1-3.1-6.3-6.2-9.6-9.1-12.6-11.4-26.2-21.6-40.7-30.4-2-1.3-3.8 1.8-1.8 3m125.1 89.6c1.6-31.6-3.4-62.9-8.5-93.9-.4-2.3-3.8-1.3-3.4.9 5.1 30.8 9.9 61.7 8.3 93-.1 2.2 3.4 2.2 3.6 0m-81.7 41.5c12.1 4.3 23.5 10 34.5 16.5 9.7 5.8 19.6 11.9 30.9 14 2.2.4 3.2-3 .9-3.4-11.8-2.2-21.9-8.8-32-14.8-10.6-6.3-21.8-11.5-33.4-15.7-2.1-.8-3 2.7-.9 3.4m-33.3-332.8c4.2-1.8 5.7-6.7 7.2-10.6 2.1-5.6 4.1-11.3 5.7-17.1 3.3-11.5 5.7-23.1 7.3-35 .3-2.3-3.3-2.2-3.6 0-1.4 10.7-3.6 21.4-6.5 31.8-1.4 5.1-3 10.1-4.8 15.1-1.4 4-2.8 10.8-7.1 12.7-2.1.9-.3 4 1.8 3.1" fill="#2d65af"/><path d="m1470.9 2119.7c-4.1-15.6 6.4-63.2-9.7-71.2-12.4-6.1-20.6 10.1-24.7 19.8-27.4 49.4 47.4 106.9 34.4 51.4" fill="#80dbda"/><path clip-path="url(#d)" d="m5612.2 2977.5-1074.9 388.3-481.8-1333.7 1074.9-388.4z" fill="url(#e)"/><path clip-path="url(#f)" d="m4602.6 2943.3c67.2 1.7 115.9-57.4 152-106.5 37.7-51.5 72-105.5 102.9-161.3 31.4-56.7 59.2-115.3 83.7-175.3 24.8-60.9 46-123.3 63.5-186.6 17.8-64.3 31.8-129.6 42-195.5 1.3-8.3 2.5-16.5 3.7-24.8.5-3.5-4.9-5.1-5.4-1.5-9.1 64.8-21.9 129.1-38.3 192.5-16.2 62.5-35.9 124.1-59.1 184.4-23.1 60.2-49.8 119-79.8 176-29.4 55.7-62.1 109.7-98.1 161.4-19 27.2-38.4 54.7-61.5 78.6-22.5 23.4-50 44.1-82.3 50.9-7.7 1.6-15.4 2.3-23.2 2.1-3.7-.2-3.7 5.5-.1 5.6" fill="#2d65af"/><path clip-path="url(#f)" d="m5034.6 2495.2c-21.6 20.2-42.3 41.4-61.9 63.4-9.7 10.9-18.7 22.3-28.3 33.2-2.6 2.9-5.3 5.3-9.4 5.5-4 .2-8.3-.6-12.4-.9-8-.7-15.9-1.3-23.9-2-3.6-.3-3.6 5.3 0 5.6l26.1 2.2c6.1.5 12.6 1.9 18.1-1.5 5.8-3.6 10-10.3 14.3-15.5 5.1-6.1 10.2-12.1 15.4-18 20.9-23.7 42.9-46.5 66-68.1 2.7-2.4-1.3-6.4-4-3.9m-188.2 194.6c.2-13.9-4.3-27.8-6.5-41.5-2.4-14.9-4-29.9-5-44.9-1.8-29.3-.8-58.8 2.7-88 .4-3.6-5.2-3.6-5.6 0-3.6 29.2-4.5 58.6-2.7 88 .9 13.8 2.3 27.6 4.4 41.2 1.1 7.2 2.3 14.4 3.7 21.5 1.6 7.9 3.5 15.6 3.4 23.6-.1 3.7 5.6 3.7 5.6.1m87.6 17.2c-25.2 11.5-49.2 25.6-71.6 42-5.3 3.9-10.5 7.8-15.6 11.9-5.5 4.4-10.7 9.4-17.2 12.2-11.6 5-24.6.8-36.1 6.8-3.2 1.7-.4 6.5 2.8 4.9 11.1-5.9 24.3-1.5 35.8-6.6 5.8-2.6 10.7-6.8 15.6-10.7 5.7-4.7 11.6-9.2 17.6-13.6 22.4-16.3 46.4-30.4 71.6-42 3.2-1.5.3-6.4-2.9-4.9m-205.9 124.5c3.1-49 16.5-96.4 30.1-143.3 1-3.5-4.4-5-5.4-1.5-13.7 47.4-27.1 95.3-30.3 144.8-.3 3.6 5.4 3.6 5.6 0m114.8 72.1c-18.3 4.4-36.2 10.5-53.4 18.2-17.7 7.8-35.3 17.1-54.9 18.7-3.6.3-3.6 5.9 0 5.6 18.6-1.5 35.5-9.4 52.3-17 18.6-8.4 37.7-15.2 57.5-20 3.6-.9 2.1-6.3-1.5-5.5m117.3-511.9c-6-3.4-7-13.8-8.5-19.8-2-8.2-3.7-16.5-5.1-24.9-2.8-16.9-4.3-34-4.6-51.1-.1-3.6-5.7-3.6-5.6 0 .4 18.9 2.2 37.7 5.4 56.3 1.6 9.2 3.6 18.4 6 27.5 1.6 6.3 3.4 13.4 9.4 16.8 3.3 1.8 6.2-3 3-4.8" fill="#2d65af"/><path d="m5213.5 1880.8c5.3-16.5-2.3-70.6 14.8-76.8 13.1-4.7 20.5 14.6 24.1 25.9 24.9 58.9-55.9 109.9-38.9 50.9m94.9 398.2s54.8-152.9 123.8-163.1-109.3 239.5-123.8 163.1" fill="#41acab"/><path d="m2784.8 3215.6c56.8 81.7 203.2 106.8 374.6 108.7 371.2-3.5 1709.4 59.9 1767.3 0s-46.6-163.3-244.7-163.3c-198 0-1727.4-136.5-1808.3-103.3-81 33.2-145.7 76.2-88.9 157.9" fill="#143e6d"/><path d="m2588.6 3175.3s131.5 47.7 233.5 43 262.1 29.5 236.7-8.9-192.9-66.1-388.7-58.3c-18.8.8-94.4 14.6-81.5 24.2" fill="#143e6d"/><path d="m3002.5 2722.9c-22-92.3-39.6-184.6-65.9-276.9-12.3-41-20.8-85.9-39.8-127.4-2.1 188.1 6.5 551 6.5 551h112.9c1.7-49-.4-97.8-13.7-146.7" fill="#aa7d0b"/><path d="m3029.8 2208.4c-14.2-14.7-111.2-12-126.5 0-3.9 3-5.8 46.6-6.5 110.1 19 41.5 27.4 86.4 39.8 127.4 26.4 92.3 44 184.6 65.9 276.9 13.3 48.9 15.4 97.8 13.7 146.6h13.7c-.1.1 14.1-646.3-.1-661" fill="#f9be13"/><path d="m3067 2194c-13.6 5.6-169.6-.3-183.5-2.1-14-1.7-26-41.6-15.8-51.7s188.9-26.2 203.5-13.4c14.6 12.9 9.5 61.7-4.2 67.2" fill="#1a1383"/><path d="m2990.8 2518.7c11.5 0 25.6-14.1 25.6-25.6l-4.8-305.5c0-11.5-9.3-20.7-20.7-20.7-11.5 0-20.7 9.3-20.7 20.7l-13.3 303.9c-.1 11.5 22.4 27.2 33.9 27.2" fill="#1a1383"/><path d="m3192.7 2155.2c-15.5 0-15.5-.9-29.9 16.8 14.6 3.4 29.2 5.4 43.8 6.9-2.3-14.1-6.6-23.7-13.9-23.7" fill="#75afe8"/><path d="m3162.9 2172c-8.9 10.9-23.2 28.8-50.1 58.4-.5.5-.9 1.2-1.4 1.7 32.4-4.3 65.4-5.9 97.9-4 .2-17.3-.3-35.4-2.6-49.3-14.6-1.4-29.2-3.5-43.8-6.8" fill="#e65e75"/><path d="m3111.4 2232.1c-10.4 12.4-20.3 34.9-29.8 64.4 41.3-.7 82.3-2.7 120.9 8.2 2.9-12.7 4.6-20.5 4.6-21.9 0-5.6 1.9-29.3 2.2-54.7-32.5-1.9-65.5-.3-97.9 4" fill="#224884"/><path d="m3163.8 2297.7c-26.8-2.7-54.4-1.6-82.2-1.2-54 169.1-90.7 566.3-87 582 2.7 11.5 9 18.1 16.7 21.3 44.9-152.8 85.4-306.3 114.3-471.4 7.9-42.4 14.3-94.2 38.2-130.7" fill="#5991ce"/><path d="m3125.6 2428.4c-28.9 165.1-69.4 318.6-114.3 471.4 9.1 3.7 20.2 2.4 29.9-2.2 16-7.5 136.4-483.9 161.4-592.8-12.7-3.6-25.6-5.8-38.7-7.1-24 36.5-30.4 88.3-38.3 130.7" fill="#215d9e"/><path d="m2990.7 2820.9c-38.1 40.3-118.6 105-147.2 49.8s-295.3-722.3-271.2-760.7 59.6-135.5 180.6-63.5c69.2 41.3 275.9 734.2 237.8 774.4" fill="#3784d1"/><path d="m2698.2 2103.9-101.2 38c-1.7.7-3.7-.2-4.3-2-.7-1.7.2-3.7 2-4.3l101.2-38c1.7-.7 3.7.2 4.3 2 .6 1.7-.3 3.6-2 4.3m-45.7 41.6-47.4 17.8c-1.7.6-3.7-.2-4.3-2-.7-1.7.2-3.7 2-4.3l47.5-17.8c1.7-.7 3.7.2 4.3 2 .6 1.7-.3 3.7-2.1 4.3m9 24-47.5 17.8c-1.7.7-3.7-.2-4.3-2-.7-1.7.2-3.7 2-4.3l47.4-17.8c1.7-.7 3.7.2 4.3 2 .7 1.7-.1 3.6-1.9 4.3m9 23.9-47.4 17.8c-1.7.6-3.7-.2-4.3-2-.7-1.7.2-3.7 2-4.3l47.5-17.8c1.7-.6 3.7.2 4.3 2 .5 1.7-.4 3.6-2.1 4.3m9 23.9-47.5 17.8c-1.7.7-3.7-.2-4.3-2-.7-1.7.2-3.7 2-4.3l47.4-17.8c1.7-.7 3.7.2 4.3 2 .7 1.7-.2 3.6-1.9 4.3m9 23.9-47.5 17.8c-1.7.6-3.7-.2-4.3-2-.7-1.7.2-3.7 2-4.3l47.5-17.8c1.7-.6 3.7.2 4.3 2 .6 1.7-.3 3.7-2 4.3m62.6 3.5-101.2 38c-1.7.6-3.7-.2-4.3-2-.7-1.7.2-3.7 2-4.3l101.2-38c1.7-.6 3.7.2 4.3 2 .6 1.7-.3 3.6-2 4.3m-45.7 41.6-47.4 17.8c-1.7.7-3.7-.2-4.3-2-.7-1.7.2-3.7 2-4.3l47.5-17.8c1.7-.7 3.7.2 4.3 2 .5 1.7-.4 3.7-2.1 4.3m9 23.9-47.5 17.8c-1.7.6-3.7-.2-4.3-2-.7-1.7.2-3.7 2-4.3l47.5-17.8c1.7-.6 3.7.2 4.3 2 .6 1.7-.3 3.7-2 4.3m8.9 24-47.4 17.8c-1.7.7-3.7-.2-4.3-2-.7-1.7.2-3.7 2-4.3l47.5-17.8c1.7-.7 3.7.2 4.3 2 .6 1.7-.3 3.6-2.1 4.3m9 23.9-47.5 17.8c-1.7.6-3.7-.2-4.3-2-.7-1.7.2-3.7 2-4.3l47.5-17.8c1.7-.6 3.7.2 4.3 2 .6 1.7-.2 3.6-2 4.3m9 23.9-47.4 17.8c-1.7.7-3.7-.2-4.3-2-.7-1.7.2-3.7 2-4.3l47.4-17.8c1.7-.7 3.7.2 4.3 2 .6 1.7-.3 3.6-2 4.3m62.6 3.5-101.2 38c-1.7.6-3.7-.2-4.3-2-.7-1.7.2-3.7 2-4.3l101.2-38c1.7-.6 3.7.2 4.3 2 .6 1.7-.3 3.6-2 4.3m-45.7 41.6-47.5 17.8c-1.7.7-3.7-.2-4.3-2-.7-1.7.2-3.7 2-4.3l47.4-17.8c1.7-.6 3.7.2 4.3 2 .7 1.7-.1 3.6-1.9 4.3m9 23.9-47.5 17.8c-1.7.6-3.7-.2-4.3-2-.7-1.7.2-3.7 2-4.3l47.5-17.8c1.7-.7 3.7.2 4.3 2 .6 1.7-.3 3.7-2 4.3m9 23.9-47.5 17.8c-1.7.7-3.7-.2-4.3-2-.7-1.7.2-3.7 2-4.3l47.4-17.8c1.7-.6 3.7.2 4.3 2 .7 1.8-.2 3.7-1.9 4.3m9 24-47.5 17.8c-1.7.6-3.7-.2-4.3-2-.7-1.7.2-3.7 2-4.3l47.5-17.8c1.7-.7 3.7.2 4.3 2 .6 1.7-.3 3.6-2 4.3m8.9 23.9-47.5 17.8c-1.7.7-3.7-.2-4.3-2-.7-1.7.2-3.7 2-4.3l47.4-17.8c1.7-.6 3.7.2 4.3 2 .8 1.7-.1 3.6-1.9 4.3m62.6 3.4-101.2 38c-1.7.7-3.7-.2-4.3-2-.7-1.7.2-3.7 2-4.3l101.2-38c1.7-.7 3.7.2 4.3 2 .6 1.8-.2 3.7-2 4.3m-45.6 41.7-47.5 17.8c-1.7.6-3.7-.2-4.3-2-.7-1.7.2-3.7 2-4.3l47.4-17.8c1.7-.7 3.7.2 4.3 2 .7 1.7-.2 3.6-1.9 4.3m8.9 23.9-47.4 17.8c-1.7.7-3.7-.2-4.3-2-.7-1.7.2-3.7 2-4.3l47.5-17.8c1.7-.7 3.7.2 4.3 2 .6 1.7-.3 3.7-2.1 4.3m9 23.9-47.5 17.8c-1.7.6-3.7-.2-4.3-2-.7-1.7.2-3.7 2-4.3l47.4-17.8c1.7-.6 3.7.2 4.3 2 .7 1.7-.1 3.7-1.9 4.3m9 23.9-47.4 17.8c-1.7.7-3.7-.2-4.3-2-.7-1.7.2-3.7 2-4.3l47.5-17.8c1.7-.7 3.7.2 4.3 2 .5 1.8-.4 3.7-2.1 4.3m9 24-47.5 17.8c-1.7.6-3.7-.2-4.3-2-.7-1.7.2-3.7 2-4.3l47.4-17.8c1.7-.6 3.7.2 4.3 2 .7 1.7-.2 3.6-1.9 4.3m62.6 3.4-101.2 38c-1.7.6-3.7-.2-4.3-2-.7-1.7.2-3.7 2-4.3l101.2-38c1.7-.6 3.7.2 4.3 2 .6 1.7-.3 3.7-2 4.3m-45.7 41.7-47.5 17.8c-1.7.7-3.7-.2-4.3-2-.7-1.7.2-3.7 2-4.3l47.4-17.8c1.7-.7 3.7.2 4.3 2 .7 1.7-.2 3.6-1.9 4.3m9 23.9-47.4 17.8c-1.7.6-3.7-.2-4.3-2-.7-1.7.2-3.7 2-4.3l47.5-17.8c1.7-.6 3.7.2 4.3 2 .5 1.7-.4 3.6-2.1 4.3m9 23.9-47.5 17.8c-1.7.7-3.7-.2-4.3-2-.7-1.7.2-3.7 2-4.3l47.4-17.8c1.7-.7 3.7.2 4.3 2 .7 1.7-.2 3.7-1.9 4.3m8.9 23.9-47.4 17.8c-1.7.6-3.7-.2-4.3-2-.7-1.7.2-3.7 2-4.3l47.5-17.8c1.7-.6 3.7.2 4.3 2 .5 1.7-.3 3.7-2.1 4.3m9 23.9-47.5 17.8c-1.7.7-3.7-.2-4.3-2-.7-1.7.2-3.7 2-4.3l47.4-17.8c1.7-.7 3.7.2 4.3 2 .7 1.8-.1 3.7-1.9 4.3" fill="#fff"/><path d="m2804.1 2697.9h-83.9s54 452.2 73.5 495c15.2 33.5 59.5 26.1 101 20.8-47.3-169.8-91.8-339.7-90.6-515.8" fill="#152b3f"/><path d="m2932.7 2697.9h-128.5c-1.3 176.1 43.3 346 90.5 515.8 11.6-1.5 23-2.8 33.4-3 17-.4 31.9 2.7 45.8 6.1 38.8-21.4 69.4-55.5 77-98.3 31.2-142.2 43.3-281.7 62.1-420.6z" fill="#75afe8"/><path d="m3113 2697.9c-18.8 138.9-30.9 278.4-62.1 420.6-7.5 42.8-38.2 76.9-77 98.3 25.3 6.2 46.9 13.5 70.4 3.4 36.3-15.7 100.9-522.2 100.9-522.2h-32.2z" fill="#87bcf1"/><path d="m3171.4 2743h-477.4c-19.1 0-34.6-15.5-34.6-34.6s15.5-34.6 34.6-34.6h477.4c19.1 0 34.6 15.5 34.6 34.6s-15.5 34.6-34.6 34.6" fill="#fff"/><path d="m3778.5 2537.5c-1.1-328.3-.2-702.5 4.2-722.5 6-27.3-59.2-40.4-89.5-19.1 3.5 229.4 61.8 447.2 74.6 677.4 2 18.5 4.1 41.8 10.7 64.2m322.8-708.2c-25.1-1.6-71-26.6-74.2 45.4-1.3 29.7-10.3 224.8-21.6 446.2 30.8-129.4 56.8-257.1 94-381.6 5.4-67.7 6.8-109.7 1.8-110" fill="#172c51"/><path d="m4005.5 2321c-16.2 316.1-37.2 686-47.3 705.4-17.2 32.9-167.6 25.1-173.9 6.3-2.8-8.3-4.9-237.6-5.8-495.1-6.6-22.3-8.6-45.7-10.7-64.2-12.8-230.2-71-448-74.6-677.4-9.4 6.6-15.5 16.5-15 30.3 0 0 78.5 1183.9 60.9 1208.5-12.9 24.6-158.1 19.9-158.1 19.9s-25.1-3.1-23 18.8 492 23 539 5.2-19.9-17.8-42.8-18.8c-23-1-60.6-4.2-61.6-94-.8-71.9 85.3-755.2 106.9-1026.4-37.3 124.3-63.3 252.1-94 381.5" fill="#304c6a"/><path d="m2857.8 411.5s-167.9 1368.7 116.2 1402.1 1867.4 140.2 1887.5-41.8c20.1-181.9 222-1407.1-98.9-1440.5-320.8-33.4-1880-133.2-1904.8 80.2" fill="#304c6a"/><path d="m2820.4 411.5s-167.9 1368.7 116.2 1402.1 1867.4 140.2 1887.5-41.8c20.1-181.9 222-1407.1-98.9-1440.5-320.8-33.4-1880-133.2-1904.8 80.2" fill="#75afe8"/><path d="m2883.8 453.6s-178.6 1306.7 87.7 1338.1c266.4 31.3 1805 125 1823.8-45.6s175.5-1336.3-125.4-1367.7c-300.7-31.3-1762.8-124.9-1786.1 75.2" fill="#3784d1"/><path d="m2905.7 468.6s-175.8 1286.1 86.4 1317c262.2 30.8 1776.8 123 1795.3-44.9s172.7-1315.2-123.4-1346.1c-296.2-30.8-1735.4-122.9-1758.3 74" fill="#dee6ee"/><path d="m3941.2 586.6c16.7 17.4-59.8 142.8-143.6 119.3s-114.7-50.4-114.7-121.8 105.6-142 129.2-129.2 0 31 0 31c-54.3 0-98.3 44-98.3 98.3s44 98.3 98.3 98.3c53.4 0 96.9-42.6 98.2-95.7-.1-.2 14.2-17.6 30.9-.2" fill="#ff7116"/><path d="m3910.3 584.1v2.5c-1.3 53.1-44.8 95.7-98.2 95.7-54.3 0-98.3-44-98.3-98.3s44-98.3 98.3-98.3c54.2.1 98.2 44.1 98.2 98.4" fill="#75afe8"/><path d="m3446.2 686.1c0 68.5-.3 137.1.2 205.6.1 16.1-11.6 28.5-28.3 28.2-36.4-.7-72.8-.3-109.2-.1-5.2 0-7-1.2-7-6.7.2-56 .2-111.9 0-167.9 0-4.9 1.3-6.2 6.2-6.1 16.4.3 32.9 0 49.3.2 3.7 0 5.5-.6 6-4.9 2.5-21 5.4-42 8.3-63 .6-4.5-2.1-4.3-5-4.3-19.2 0-38.4-.2-57.6.1-5.4.1-7.4-1.1-7.2-7 .5-12.7.1-25.5.1-38.2.1-23.5 9.7-33.2 33.4-33.4 11.1-.1 22.2-.2 33.2.1 4.1.1 5.8-.7 5.8-5.4-.3-18.1-.2-36.2-.1-54.3 0-3.2-.5-5-4.4-5.3-19.1-1.6-38.3-2.9-57.5-2.1-18.6.8-36.1 5.7-51.2 17-20.6 15.4-30.1 36.8-32.8 61.6-2.2 20.1-.8 40.2-.9 60.3 0 5-1.3 6.7-6.4 6.6-16.1-.3-32.1 0-48.2-.2-4.9-.1-6.8 1.2-6.7 6.5.3 19.9.3 39.9 0 59.8-.1 5.1 1.6 6.1 6.3 6.1 16.6-.3 33.2 0 49.9-.2 3.8 0 5.1.9 5.1 4.9-.1 56.9-.1 113.8 0 170.7 0 3.9-1.2 5.1-5.1 5.1-73.1-.1-146.3-.2-219.4 0-12.7 0-25.1-11.3-25-26.8.4-63 .2-126 .2-188.9 0-74.6.3-149.2-.2-223.9-.1-16.6 11.5-28.8 28.9-28.7 137.2.4 274.5.4 411.7 0 15.9 0 28 11.9 27.8 28-.5 68.8-.2 137.7-.2 206.6" fill="#3784d1"/><path d="m3155.6 1613.9c-5.4 13.3-50.3 15.9-63.1 0s-14.6-95.8 0-121.2 58.3-22.9 60.7-11.4c2.4 11.4 7.8 119.3 2.4 132.6m110.2 0c-8.3 14-59.6 11-63.1 0s-7.8-268.3 0-283.8 63.1-25.2 63.1 0 8.3 269.8 0 283.8m103 0c-6.3 16.8-50.2 22-63.1 0-13-22-9.8-321.5 0-343.3s53-32.2 63.1 0 6.3 326.5 0 343.3m103 0c-4.4 21.1-55.5 23.6-63.1 0-7.7-23.6-17.2-468.4 0-490.8s48.1-13.4 69.1 3.7c21 17-1.6 466-6 487.1" fill="#ffc261"/><path d="m3941.8 963.1c-5.2 3.9-10.4 7.9-15.6 11.8 5.1-4 10.4-7.9 15.6-11.8z" fill="#5851bc"/><path d="m3943.8 1112.5c-47.3 89.3-175.8 103.9-242.5 29.2-114.2-119.6 22.3-288.3 167.2-248.5 7 27.7-82.1 169.9-71.3 177.5 10.7 7.6 138.1-108 155-93.1 16.9 15 18.3 86.5-8.4 134.9" fill="#75afe8"/><path d="m4049.8 864.2c2.4 21.9-150.3 114.9-226.4 171.1 44.5-85.1 114.2-247.2 134.4-254.9s89.6 61.9 92 83.8" fill="#ff9725"/><path d="m3812 1297.6c-111.4 0-202 85.4-202 190.3 0 105 90.6 202.4 202 202.4s202-97.4 202-202.4c0-104.9-90.6-190.3-202-190.3m0 341.2c-88.3 0-130.1-67.7-130.1-150.8 0-83.2 41.9-150.8 130.1-150.8 88.3 0 143.5 67.7 143.5 150.8s-55.2 150.8-143.5 150.8" fill="#aadaff"/><path d="m3812 1337.1c-83.2 0-150.8 67.7-150.8 150.8 0 83.2 67.7 150.8 150.8 150.8 83.2 0 150.8-67.7 150.8-150.8s-67.6-150.8-150.8-150.8m0 260.9c-60.8 0-110-49.3-110-110s49.3-117.8 110-117.8c60.8 0 110 57 110 117.8s-49.3 110-110 110" fill="#75afe8"/><path d="m3812 1370.2c-60.8 0-110 57-110 117.8s49.3 110 110 110c60.8 0 110-49.3 110-110 0-60.8-49.3-117.8-110-117.8m0 187c-38.3 0-69.3-31-69.3-69.3s31-69.3 69.3-69.3 69.3 31 69.3 69.3-31.1 69.3-69.3 69.3" fill="#aadaff"/><path d="m3812 1418.7c-38.3 0-69.3 31-69.3 69.3s31 69.3 69.3 69.3 77.7-31 77.7-69.3-39.5-69.3-77.7-69.3" fill="#75afe8"/><path d="m3812 1453.4c-19.1 0-41.4 15.5-41.4 34.5 0 19.1 22.3 34.5 41.4 34.5s43.3-15.5 43.3-34.5c-.1-19-24.2-34.5-43.3-34.5" fill="#ff9725"/><path d="m4603.3 1482.6c10.7 80.4-60.5 183.1-172.9 180.3s-184.8-87.7-169.3-198.9 85.8-176.9 183.1-171.6c97.3 5.2 148.4 109.8 159.1 190.2" fill="#fcc677"/><path d="m4470.4 1398.2v-4.4c-30.5 4.3-112.2-18.1-118.7 30 .7 26.4-46.2 150.7-17.4 170.7 13.1 22 139.4 8.7 160.2 12.9 24.2.4 42.6-22.2 38.2-45.3-11.9-25.6-11.9-189.9-62.3-163.9 0 0-1.3 13-1.3 13 32.8 3.9 42.1 129.3 54.9 152.5 6.5 15.6-21 46.4-30.3 29.8-24.2-8.1-165.5 30.1-153.5-28.6 6 .9 19.3-134.7 20.2-139.4 5.2-42.8 84.6-12.6 108.8-14.3-.1 0 1.2-13 1.2-13" fill="#fff"/><path d="m4469.1 1438c5.4-38.1 18.2-97.4-41-87.6-50.7-12.4-32.3 60.3-37.9 86.8 0 0-4.3 6.6 9.3 3.5s-17.7-92.2 28.9-80.3c11.8.6 28.1-2.1 30.9 14.1 0 0-2.3 63.9-2.3 63.9z" fill="#fff"/><path d="m4715.6 672.9c-33.1 16.8-637.5 16.7-679-14.6-41.4-31.3-24.4-134.8 5.2-153.5s618-48.9 673.7-4.2c55.8 44.6 33.2 155.5.1 172.3" fill="#75afe8"/><path d="m4670 592.3c0 33.2-53.2 64.9-81.2 58.4s-43.5-30.8-43.5-64 25-60.6 59.8-64.5c34.9-3.8 64.9 36.9 64.9 70.1" fill="#fff"/><path d="m4113.5 612.2s458 9.1 472 0 0-50.9 0-50.9-429.4-6.3-454.8-3.2c-25.4 3.2-42.7 14.6-42.7 28.6.1 14.1 11.5 25.5 25.5 25.5" fill="#fff"/><path d="m4120.2 566h2.6v41.5h-2.6z" fill="#1b2c49"/><path d="m4608.3 582h3v6.1h-3z" fill="#22559f" transform="matrix(.70559954 -.70861082 .70861082 .70559954 942.420182 3438.711855)"/><path d="m4577.9 593.3c11 11 28.8 10.9 39.8-.1 10.9-11 11.6-25.1 1.9-39.2-9.7-14.2-30.8-11.4-41.7-.4-11.1 10.9-11 28.7 0 39.7" fill="#22559f"/><path d="m4584.7 586.4c5.1 3.7 19.7 10 27.9 1.8s8.1-23.4-1.9-29.5c-9.9-6.1-19.8-8.4-28-.2-8.1 8.2-3.1 24.2 2 27.9" fill="#eef"/><path d="m4615.8 587.3c-1.4 0-4 2.9-3.7 3.8 0 0 18.1 26.1 24.8 28.9s7.2-2.5 6.7-5.1z" fill="#22559f"/><g fill="#75afe8"><path d="m4371.3 1103.2c-19.9 1.3-37.2-13.8-38.5-33.8l-5.2-80.9c-1.3-19.9 13.8-37.2 33.8-38.5s37.2 13.8 38.5 33.8l5.2 80.9c1.3 20-13.8 37.3-33.8 38.5m225-131.6v.5c-.2-.1-.4-.1-.6-.2.2-.1.4-.2.6-.3m5.5 84.5v.5c-.3-.1-.5-.1-.8-.2.3-.1.5-.2.8-.3"/><path d="m4596.3 971.6c-.2.1-.4.2-.6.3.2.1.4.1.6.2 6.7 2.2 11.6 8.2 12.1 15.6l.9 14.5c.4 6.5-2.8 12.4-7.9 15.8-.7-.4-1.5-.7-2.3-.9l.1 2.1c.7-.3 1.5-.7 2.1-1.2 5.5 2.7 9.4 8.1 9.8 14.7l.4 6.5c.5 7.4-3.7 14-10 17-.2.1-.5.2-.7.3.3 0 .5.1.8.2 6.6 1.7 11.6 7.5 12.1 14.7.3 4.5-1.3 8.6-4 11.8-2.7 3.1-6.7 5.2-11.2 5.5l-132 8.5c-15.3 1-28.5-10.6-29.5-25.9-1-15.4-2-30.8-3-46.3-.8-11.9-1.5-23.8-2.3-35.7-1-14.9-2.5-29.7-2.6-44.6-.1-10.9 2.6-18.6 8.5-27.6 4-5.1 8.9-10.4 11.2-16.6.8-2.2 1.8-4.7 2-7 .3-3.3-.6-7.1-.8-10.4-.4-7-.4-14-.1-21 .1-2.7.3-5.3 1.2-7.9 3-8.7 12.7-8.5 20.2-6.9 6.2 1.4 12 4.3 16.7 8.5 12 10.7 14.6 28.1 11.1 43.1-2.2 9.3-6.9 16.4-11.5 24.6-.3.6-2.5 6.8-2.6 6.8l101.4-6.6c9.7-.6 18 6.7 18.7 16.4l.9 14.5c.8 7.4-3.4 14-9.7 17"/><path d="m4601.5 1017.9c-.7.5-1.4.9-2.1 1.2l-.1-2.1c.7.3 1.5.6 2.2.9"/><path d="m4601.5 1017.9c-.7.5-1.4.9-2.1 1.2l-.1-2.1c.7.3 1.5.6 2.2.9"/></g><path d="m3968.4 2622.7 243.6-461.3c15.4-67.3 103.2-52.5 131.2-36.1 0 0 219.6 82 266.7 165.6s-318.4 539.2-318.4 539.2c-8.9 13.8-37.3 11.4-51.1 2.5l-262.9-168.8c-14-8.9-18-27.3-9.1-41.1" fill="#3784d1"/><path d="m4182.8 2775c-5.7-18.1 299.6-490.4 318.7-499.4s50.2 19.2 52.3 43.7c2.1 24.6-304.4 469.8-316.8 483.2s-48.5-9.4-54.2-27.5" fill="#231f20"/><path d="m4196 2577.6c1.9-21.1 195.6-318.5 208.5-324.6s58.2 17.1 54.4 34.9c-3.9 17.8-186.5 313.7-208.5 324.6s-56.4-13.8-54.4-34.9" fill="#fff"/><path d="m4300.6 2258.4s15.4-39.9 22.7-44.6 13.9-4 18.7-.9l28.4 18.3c4.8 3.1 11.3 4.5 3.1 18.9-8.1 14.5-27.3 37.8-27.3 37.8-3.1 4.8-9.4 6.2-14.2 3.1l-28.4-18.3c-4.7-3.2-6.1-9.5-3-14.3" fill="#ffc261"/><path d="m3874.8 2816.2v-21.5l-168.1-7.9h-274.4s5.7 8.7 12.7 22.7c143.3 14.4 286.5 5.1 429.8 6.7m0 58.9v-39.5c-141.7 2.3-283 15.2-422.3-10 3.9 9.2 7.8 19.6 10.9 30.8 137.1 3 274.3 10.5 411.4 18.7" fill="#bbe0fc"/><path d="m3874.8 2876.6v-1.5c-137.1-8.2-274.3-15.7-411.4-18.7 1.6 5.6 2.9 11.3 4 17.2 135.8 2.5 271.6-3.9 407.4 3m-404.8 19.1c.3 5.7.3 11.4-.2 17.1h405v-14.1c-135.2.7-270.7 1.8-404.8-3" fill="#fff"/><path d="m3467.4 2873.6c1.4 7.3 2.2 14.7 2.6 22.2 134.1 4.7 269.6 3.7 404.8 3v-22.1c-135.8-7-271.6-.6-407.4-3.1m407.4 39.2h-405c-.5 5.9-1.4 11.8-2.8 17.6h407.9v-17.6z" fill="#bbe0fc"/><path d="m3874.8 2930.4h-407.9c-1.8 7.5-4.6 14.9-8.3 22h416.2zm-421.7 31.2c-5.4 7.9-12.2 15.3-20.7 22.2h442.5v-14.2c-140.5 1.3-280.2 3.2-421.8-8" fill="#fff"/><path d="m3458.6 2952.4c-1.6 3.1-3.5 6.2-5.6 9.2 141.6 11.2 281.4 9.3 421.7 8v-17.3h-416.1z" fill="#bbe0fc"/><path d="m3445.1 2809.5c2.4 4.8 4.9 10.2 7.5 16.1 139.3 25.1 280.5 12.3 422.3 10v-19.4c-143.4-1.6-286.6 7.7-429.8-6.7" fill="#fff"/><path d="m3952.4 2943.6c-37 3.1-73.9-.3-110.9.4-12.7 22.7-29.7 30.9-29.7 30.9s-347.9 1-397.8 1-21 15.8-21 15.8 1096.4 32.5 1160.9 22.9 118.8-69.8 110.5-139.3c-1.2-10-3.7-19.4-7.3-28.3-25.8 16.3-54.6 26.2-84.8 26.2-211.1.1-408.9 39.6-619.9 70.4" fill="#5050d1"/><path d="m4528.3 2754.6c-56.6-8.5-1094.7 24.3-1118.3 26.3s10.5 14.8 10.5 14.8 351.9-1 367.6-1c8.4 0 26.5 5.6 41.7 21.3 5.3 5.5 10.2 12.2 14.3 20.3 5.2 10.2 8.9 22.6 10.3 37.7.1.6.1 1.2.1 1.7.2 2.7.4 5.3.5 8.2.1 5.3-.1 10.3-.5 15-.4 4.9-1.1 9.6-1.9 14-1.3 6.4-3 12.3-4.9 17.6-1.9 5-4 9.6-6.3 13.6 37-.7 73.9 2.7 110.9-.4 29.3-4.3 58.3-8.7 87.1-13.2 179-27.8 351-57.1 532.7-57.1 30.1 0 59-9.9 84.8-26.2-21.1-52.9-80.1-85.3-128.6-92.6" fill="#6961de"/><path d="m3845.6 2801.1c17.9 14 29.9 34 35.9 55.8 6.6 23.9 5.5 49.2-.4 73.1-3.6 14.5-8.9 28.5-15.2 42-.9 1.9 1.9 3.6 2.9 1.7 21.4-45.3 30.6-100.3 4.4-145.7-6.5-11.2-14.9-21.2-25.1-29.2-1.8-1.4-4.1 1-2.5 2.3m706.9-8c23.6 14 35.8 41.2 40.2 67.3 4.6 27.9 1.3 58.7-12.5 83.7-7.2 13.2-17.6 24.5-31 31.6-1.9 1-.2 3.8 1.7 2.9 25.4-13.5 39.5-41 44.6-68.4 5.3-28.8 2.3-60.3-11.1-86.5-6.9-13.5-17-25.6-30.1-33.4-1.9-1.1-3.6 1.7-1.8 2.8m-323.9 9.6c17.7 16.2 27.8 39.1 30.9 62.7 1.8 13.8 1.3 27.9-.7 41.7-1.7 11.8-4.1 23.9-8.9 34.9-4.5 10.3-11.6 20-22.9 23.1-2 .6-1.2 3.8.9 3.2 22.5-6.2 29.4-33.5 33-53.5 4.9-26.7 4.4-54.9-6.3-80.2-5.4-12.9-13.3-24.7-23.7-34.2-1.5-1.5-3.9.8-2.3 2.3m-576.4 338.2c-136.2.4-272.4.2-407.7-3.4 1.7 11.3 2.7 22.9 3 34.6h404.7z" fill="#fff"/><path d="m3652.2 3172.2h-404.7c.2 5.9.1 11.7-.2 17.6h404.9z" fill="#bbe0fc"/><path d="m3652.2 3189.8h-404.9c-.4 8.9-1.4 17.7-3 26.4h407.9zm0 39.5h-411c-2.5 9.1-5.8 18-10 26.5 140.4 1.8 280.7 2.8 421.1 3.4v-29.9z" fill="#fff"/><path d="m3231.1 3255.8c-5.5 11-12.5 21.5-21.4 31h442.5v-27.6c-140.4-.6-280.7-1.6-421.1-3.4m421.1-39.7h-407.9c-.8 4.4-1.9 8.8-3.1 13.2h411zm-410.6-95.2c1.1 5.4 2 11 2.9 16.7 135.3 3.6 271.5 3.8 407.7 3.4v-8.9c-137.7 1.6-274.8 2.3-410.6-11.2" fill="#bbe0fc"/><path d="m3230.2 3076.7c4.2 13.2 8.3 28.2 11.4 44.2 135.8 13.5 272.9 12.8 410.6 11.1v-28.6c-141.5.8-282.5-2.5-422-26.7" fill="#fff"/><path d="m3226.2 3064.9c1.3 3.7 2.6 7.7 3.9 11.8 139.6 24.2 280.5 27.5 422 26.7v-22.5c-141.9.4-283.9-2.1-425.9-16m426-30.2-168.1-10.5h-274.4s6.4 13 14 33.7h428.5z" fill="#bbe0fc"/><path d="m3223.7 3057.9c.8 2.3 1.7 4.6 2.5 7 142 13.9 284 16.4 426 16v-23z" fill="#fff"/><path d="m4803.5 2967.6c-102-41.9-1592.5 46.1-1616.1 48.7s10.5 19.7 10.5 19.7 351.9-1.3 367.6-1.3c15.8 0 65.7 26.3 67 118.9.5 38.1-6.7 65.4-15.4 84.4 45.8-.8 91.7-8.6 137.5-8.6 307.7-8.8 606.6 4.4 923.1-61.5 97-21.2 166.8-75.9 238.3-133.7-24.2-28.7-61.3-45.5-112.5-66.6" fill="#643877"/><path d="m3754.6 3229.3c-45.8 0-91.7 7.8-137.5 8.6-12.5 27.1-27.9 37-27.9 37s-347.9 1.3-397.8 1.3-21 21.1-21 21.1 1668.3-.1 1676.1-.1c7.9 0 105 7.9 105-127.4 0-67.4-11.4-107.5-35.5-135.9-71.5 57.8-141.3 112.5-238.3 133.7-316.5 66.1-615.4 52.9-923.1 61.7" fill="#391a49"/><path d="m3630.7 3041.7c20.9 18.3 35.4 43 42.4 69.8 7.3 28.3 5.8 58.2-2.7 86.1-5 16.4-12.4 31.9-21.6 46.3-1.2 1.8 1.7 3.5 2.9 1.7 16.7-26 27.3-56 29.2-86.9 1.8-28.5-4.4-57.4-18.2-82.5-7.6-13.9-17.6-26.4-29.6-36.9-1.7-1.3-4 1-2.4 2.4m400 11.1c9.5 8.1 19.3 16.5 25.8 27.4 7.5 12.5 7.6 26.9 8.1 41.1.5 15 .9 30.1.7 45.2-.2 14.2-1.4 28.5-6.3 41.9-5 13.6-13.5 25.8-24.4 35.4-1.6 1.4.7 3.7 2.3 2.3 9.8-8.7 17.8-19.5 23.1-31.5 5.7-13.1 7.8-27.2 8.4-41.4.6-15.8.1-31.7-.4-47.5-.5-14.4-.1-29.7-6.5-42.9-6.3-13.1-17.7-22.9-28.6-32.2-1.5-1.5-3.8.9-2.2 2.2m189.7.1c8.7 10.2 14.5 22.4 18.8 35 4.3 12.7 7.4 25.9 9.4 39.1 4 26.7 3.6 54.2-1.4 80.8-2.8 15-7 29.7-12.5 43.9-.8 2.1 2.5 2.9 3.3.9 20.2-51.4 22.4-110.3 5.4-162.9-4.6-14.2-10.8-27.9-20.5-39.3-1.5-1.6-3.9.8-2.5 2.5m645.2-14c36.4 14.8 47.5 56.9 50.7 92.3 2.9 33.1.8 67.6-11.2 98.9-6.7 17.5-16.8 33.6-30.4 46.6-1.5 1.5.8 3.8 2.3 2.3 25-24 37.5-57.4 41.8-91.3 2.3-17.6 2.4-35.4 1.1-53.1-1.6-20.1-4.7-40.4-13.3-58.8-8.2-17.5-21.9-32.7-40.1-40.1-2-.8-2.9 2.4-.9 3.2" fill="#fff"/><path d="m4400.2 3097.1c22.3 26.3 9.3 104.3-7.5 140.8-13.7 29.7 347.8 32.8 355.7-11.1 7.8-43.9 20.4-120.6-21.9-150.4-44.9-31.5-348.6-5.6-326.3 20.7" fill="#9bc6ee"/><path d="m4475.7 3102.1s-2.1 119.6-11.5 130.6 8.9 7 9.4 5.3 14.6-111.9 10.4-135.9c-4.1-24.1-10.9-13.6-8.3 0m59.6 0s-2.1 119.6-11.5 130.6 8.9 7 9.4 5.3 14.6-111.9 10.4-135.9c-4.1-24.1-10.9-13.6-8.3 0m59.5 0s-2.1 119.6-11.5 130.6 8.9 7 9.4 5.3 14.6-111.9 10.4-135.9c-4.1-24.1-10.9-13.6-8.3 0m59.6 0s-2.1 119.6-11.5 130.6 8.9 7 9.4 5.3 14.6-111.9 10.4-135.9c-4.2-24.1-11-13.6-8.3 0m59.5 0s-2.1 119.6-11.5 130.6 8.9 7 9.4 5.3 14.6-111.9 10.4-135.9c-4.1-24.1-10.9-13.6-8.3 0" fill="#3784d1"/><path d="m3738.1 3097.1s24.7 121.7-6.6 155.5c-3.1 24.4 64.2 11.9 64.2 11.9s20.4-5.7 20.4-12.3c0-6.5 25.1-140.7 0-161.4s-48.6-12.7-61.1-15.9c-12.5-3.1-29 10-16.9 22.2" fill="#fc8d15"/><path d="m3994.3 2614.8v-31.5l-119.6-7.5h-195.3s5.7 11.4 11.8 29.1c100.1-2.4 201.8.5 303.1 9.9m0 46.7c-96.7.3-193.9 4.3-289.7-1.5.5 3.7.9 7.4 1.2 11.1h288.6v-9.6z" fill="#bbe0fc"/><path d="m3994.3 2687.4v-16.4h-288.6c.5 6 .7 12 .5 18 96.1 1.8 192.1-3.7 288.1-1.6" fill="#fff"/><path d="m3994.3 2695.8v-8.4c-96-2.1-192 3.4-288 1.6-.1 2.9-.2 5.8-.4 8.7 97 2.2 192.4-2.1 288.4-1.9" fill="#bbe0fc"/><path d="m3994.3 2745.6v-15.7c-98-5.9-197.6 1.5-294.6-1.5-2 6-4.6 11.8-7.8 17.4 99.9-.4 201.6-2.1 302.4-.2" fill="#fff"/><path d="m3691.9 2745.7c-3.4 6-7.6 11.6-12.5 16.9h315v-17.1c-100.9-1.8-202.6-.1-302.5.2m302.4-15.8v-10.1c-97.3.2-194.9 2.5-291.2-3.6-.9 4.1-2 8.2-3.4 12.2 97 3 196.6-4.4 294.6 1.5" fill="#bbe0fc"/><path d="m3705.8 2697.7c-.5 6.2-1.4 12.4-2.7 18.5 96.3 6.1 193.9 3.7 291.2 3.6v-24c-96-.2-191.4 4.1-288.5 1.9m-5.6-61.6c1.8 7.6 3.3 15.6 4.4 23.8 95.8 5.8 193 1.8 289.7 1.5v-21.7c-98 1.4-196.1 5.7-294.1-3.6" fill="#fff"/><path d="m3694.5 2615.1c2 6.5 4 13.6 5.7 21 98 9.2 196.1 5 294.1 3.6v-6.5c-99.5-2.9-201.1 2.7-299.8-18.1" fill="#bbe0fc"/><path d="m3691.1 2604.9c1.1 3.2 2.2 6.6 3.3 10.2 98.7 20.8 200.3 15.2 299.8 18.1v-18.4c-101.2-9.4-203-12.3-303.1-9.9" fill="#fff"/><path d="m4093 2697.4c79.1-22 153.9-74.7 233-44 .6.3 1.2.5 1.8.8-.8-77.8-9.1-109.6-98.6-117-98.7-8.2-549 31-565.8 32.9s7.5 14 7.5 14 250.5-.9 261.7-.9 46.7 18.7 47.7 84.6c.2 12-.8 22.6-2.4 31.7 38.4 3.2 76.8 7.5 115.1-2.1" fill="#e65e75"/><path d="m4326 2653.5c-79.1-30.8-153.9 22-233 44-38.4 9.6-76.8 5.2-115.2 2.1-7.3 41-28.5 54.7-28.5 54.7s-247.7.9-283.2.9-15 15-15 15 596.3-.1 601.9-.1 74.8 5.6 74.8-90.7c0-8.9 0-17.3-.1-25.2-.4-.2-1.1-.5-1.7-.7" fill="#d34262"/><path d="m3977.6 2577.5c20.8 12.3 26.3 37.7 26.9 60.1.6 23.9-2.3 47.9-9.2 70.8-3.9 12.9-9.1 25.3-15.6 37.1-1.4 2.5 2.4 4.7 3.8 2.2 12.2-22.1 19.8-46.4 23.2-71.4 1.7-12.3 2.4-24.8 2.2-37.2-.2-12.7-1.6-25.6-6.3-37.5-4.6-11.4-12.1-21.6-22.8-27.9-2.4-1.4-4.6 2.4-2.2 3.8m154.7-2.1c19 10 24.4 33.7 26.7 53.3 2.9 24.7 1.3 49.9-4.6 74.1-3.4 13.7-8.2 27.1-14.3 39.9-1.2 2.5 2.6 4.8 3.8 2.2 11.3-23.6 18.2-49.2 20.2-75.3 1-13 .9-26.1-.5-39-1.2-11.1-3.1-22.3-7.3-32.7-4.4-10.9-11.3-20.8-21.8-26.3-2.5-1.3-4.7 2.5-2.2 3.8m154.5.2c16.4 17.2 19.5 44.3 19.1 66.9-.5 26.6-6.4 54.2-19.2 77.7-6 11-13.8 21.5-24.5 28.2-2.4 1.5-.2 5.3 2.2 3.8 21.2-13.3 32.6-39.2 39-62.5 7.3-26.5 9.7-55.8 3.5-82.8-2.9-12.6-8-25.1-17-34.5-1.9-2-5 1.2-3.1 3.2" fill="#fff"/><path d="m3260.4 969s-2.3 10.4-2.8 26.2" fill="none" stroke="#ffc261" stroke-linecap="round" stroke-linejoin="round" stroke-width="3"/><path d="m3259.7 1030.5c2.6 16 7.7 33.5 17.4 49.9" style="fill:none;stroke:#ffc261;stroke-width:3;stroke-linecap:round;stroke-linejoin:round;stroke-dasharray:8.064 8.064"/><path d="m3287.2 1095.1c5.2 6.6 11.4 12.9 18.5 18.7" fill="none" stroke="#ffc261" stroke-linecap="round" stroke-linejoin="round" stroke-width="3"/><path d="m3492.8 1140.1s178.6-34.6 83-306.5 31.3-317.4 64.2-300.1m241.3 201.1s30.7 48.1-37.6 78.3c-68.3 30.3-41.1 56.4-41.1 56.4m25 341.6s-11.5 43.1 0 59.7m211.1 302.8s164.9 79 60.4-245.7 27.2-573.9 112.8-614.4m340.6-0s78.1 30.3 33 121.9l-33 53.7m-110.7 251.2s-32.6 53-12.1 88.5" style="fill:none;stroke:#ffc261;stroke-width:3;stroke-linecap:round;stroke-linejoin:round;stroke-miterlimit:10;stroke-dasharray:12 12"/><path d="m1306.3 3332.5c-.1 129.2 518.1 164.6 671.5 180.7s901.6-9 901.7-94.8c.1-85.9-1573.1-215.1-1573.2-85.9" fill="#4676b7"/><path d="m2665.3 3256.1c-1.2-36-36.9-55.1-75.5-60.6-51.6-7.3-132.2 54.1-132.2 54.1-30 .5-37.5-42.2-37.5-42.2l-65.5 19s1.2 100.8 27 145.4c105.1 1.4 219.3-35.7 283.7-115.7" fill="#1b2c49"/><path d="m2381.6 3371.8c8 13.8 18.3 22.2 31.7 20.6 56.7-6.6 206.4-30.8 240.4-94.4 8.5-15.9 12-29.9 11.6-41.9-64.4 80-178.6 117.1-283.7 115.7" fill="#aecff1"/><path d="m2096.6 1174.3c-11.5-9-29.2-6.1-77.3 38-67.9 62.1-62.1 119.4-41.7 151.3 18.2 28.4 170.5 82.6 324.7 52.7-72.6-78.8-224.9-119.6-205.7-242" fill="#ffa829"/><path d="m2703.3 1097.4s-225.1 182.3-390.2 180.1c-165.2-2.2-189.1-68.5-203.8-88.1-4.3-5.7-7.9-11.4-12.6-15.1-19.2 122.4 133.2 163.2 205.7 241.9 19-3.7 38.1-8.6 56.9-15.1 171.5-58.8 361.1-226.2 377.5-248.4 16.4-22.1-33.5-55.3-33.5-55.3" fill="#ffc261"/><path d="m1856.7 1736.6c-15.2 7-30.2 14.1-44.6 21.2-12.2 83.7 221.3 569.5 340.9 780.1-3.3-45.4-14.3-90.3-31.8-131.9-91.8-221.1-211.2-434.2-264.5-669.4" fill="#051123"/><path d="m2070.6 2139.2c4.4-30.8-4.4-70.3 35.2-57.1 12.1-141.3 13.1-282.5 30.2-423.8-62.3-8.6-177.3 31.7-279.3 78.3 43.2 190.5 129.7 366.5 209.7 543.9-3.4-46.2-5.1-93 4.2-141.3" fill="#051123"/><path d="m2340.6 2164.5c-45.2-265.4-159.5-469.8-159.5-469.8-3.8-21.8-20.3-33.1-45.2-36.5-17.1 141.3-18.1 282.5-30.2 423.8-39.6-13.2-30.8 26.4-35.2 57.1-9.3 48.3-7.6 95.1-4.2 141.3 18.8 41.7 37.3 83.4 54.7 125.5 17.5 41.6 28.5 86.5 31.8 131.9 11.3 20 21.7 37.5 30.7 51.9-30.6 480.8 174.2 657.9 174.2 657.9s2.5 27 63.8-22.1c6.1-70.7-8.9-638.4-80.9-1061" fill="#172c51"/><path d="m1386.5 3252.4c-14 21.4-20 41.8-7.1 55.3 39.3 41.3 148.7 146.4 219.9 135.5 24.3-3.7 40.1-12.8 49.2-24.8-110.8-15.8-213-59.4-262-166" fill="#aecff1"/><path d="m1642.9 3330.5c-25.2-45.6-122.7-73.1-122.7-73.1-18.5-23.7 11.2-55.3 11.2-55.3l-54.5-40.9s-61.7 47.5-90.3 91.3c49 106.7 151.2 150.2 262 166 17.6-23.4 10.8-58-5.7-88" fill="#1b2c49"/><path d="m1776 2521.6c-26.4-202.2 0-400 8.8-602.2 3.8-64.3 20.6-128.5 39.2-190-6.7.2-13.6.2-20.6.2-114.5 67.1-76.9 621.5-63.8 830.9-39.2 50.7-279.7 603.5-279.7 603.5l29.1 16.9c91.5-165.4 195.4-324.6 273.9-496.6 21.9-52.8 17.5-105.6 13.1-162.7" fill="#051123"/><path d="m1824 1729.4c-18.6 61.5-35.4 125.7-39.2 190-8.8 202.2-35.2 400-8.8 602.2 4.4 57.1 8.8 109.9-13.2 162.6-78.5 171.9-182.3 331.2-273.9 496.6l55.6 32.2s237.5-307.5 376.5-475.9c139-168.5 158.6-1018.9 158.6-1018.9-10.9-72.6-72.2 6.9-255.6 11.2" fill="#172c51"/><path d="m1798 1862.2c87.9-109.9 114.3-246.2 83.5-391.2-8-40-10.3-80.5-7.6-120.5-46.9 166.9-87.3 365.5-95.6 381.6-14.6 28.2-93 74.2-29.2 124.3 10.6 7.9 22 14.8 34.1 20.6 5-4.1 9.9-8.9 14.8-14.8m342.9-369.2c12.6 20.1 30.9 34.4 52.5 44.7-28-89.2-56.8-181.4-64.9-247.3-9.6-62.7-22.6-98.3-34.4-119.3 41.5 101.1-23.1 219.2 46.8 321.9m-87.9-219.8c33-78.5-58-94.8-120.2-96.5-12.3 27.2-24.9 62.3-37.4 101.7 4.8 18.9 13.7 37 25.7 52 44 52.7 114.3-13.3 131.9-57.2" fill="#e24b00"/><path d="m2193.3 1537.7c-21.6-10.3-39.9-24.6-52.5-44.7-69.8-102.7-5.3-220.8-46.8-321.9-13.8-24.5-26.1-29-29.7-32.9-6.7-7.2-43.9-23.8-84.4-19.5-14.6-1-30.7 21.4-47.3 58 62.2 1.7 153.3 18.1 120.2 96.5-17.6 44-87.9 109.9-131.9 57.1-12-15-20.9-33.1-25.7-52-7.2 22.9-14.4 47.1-21.4 72.2-2.7 40-.4 80.4 7.6 120.5 30.8 145.1 4.4 281.3-83.5 391.2-4.9 5.8-9.8 10.7-14.9 14.8 157.6 76.8 425.2-14.9 463.9-62.3 24.6-29.9-13.7-150.4-53.6-277" fill="#ff7116"/><path d="m2032.3 1200.8c-17.7-20.4-36.1-31.7-54.5-36-8.2-1.9-16.4-2.5-24.5-1.8-21.5 1.7-42.7 11.6-62.2 26.1-44.1 84.8-106.6 156.1-141.4 246.7-44.5 109.2 22.6 210.9 91.8 291.5 3.8 2.7 6 4.2 6 4.2l79.3-9.8s-164.8-72.8-85.9-213.4c23.7-42.2 56.9-79.2 89.9-112.5 76.9-77.8 152.5-136 101.5-195" fill="#ffc261"/><path d="m1749.7 1435.8c34.8-90.6 97.3-161.9 141.4-246.7-25 18.6-47.5 44.9-64.9 71.4-47.8 72.6-127.7 196.6-111.8 307 10.3 71.1 101.4 141.2 126.6 159.4.2.1.3.2.5.3-69.2-80.5-136.3-182.2-91.8-291.4" fill="#ffa829"/><path clip-path="url(#g)" d="m1989.8 1010.9h124.2v174.8h-124.2z" fill="url(#i)"/><path clip-path="url(#j)" d="m2047.9 935.5h172.1v167.6h-172.1z" fill="url(#k)"/><path d="m2250.3 915.4s-15.9 58.1-141.9 57.7c-27 37.6-21.2 80.6-39.7 90.8s-35.4 18.8-54.8 0 31.5-61.7 16.8-96.1c-14.7-34.3-3.3-65.8 51.5-67.9 54.8-2 188.5-45.8 168.1 15.5" fill="#00000c"/><path d="m2129.7 963.3s-10.6 81.4 15.5 94.9c26.2 13.5 42.5 17.2 42.5 17.2s-10.2 45.8-74.4 23.3c-20-6.5-21.7-12.3-21.7-12.3s32.7-25.8 28.2-74.8c-4.5-49.1-16.8-53.6-16.8-53.6s27.1-27.8 26.7 5.3" fill="#00000c"/><path clip-path="url(#l)" d="m2929.6 1076.4-133 163.8-163.6-132.8 132.9-163.8z" fill="url(#m)"/><path d="m2696.6 1072.3 49.1-8.4 33.2 104s-29.3 47-38.7 33.7c-9.5-13.3-25.7-101.9-36.8-104.1-11.3-2.4-15.1-23.8-6.8-25.2" fill="#e24b00"/><path clip-path="url(#n)" d="m1962.3 1683 71 133.9-137.8 73-70.9-134z" fill="url(#o)"/><path d="m1951.8 1694.8 2.5 50.9-109.8 20.9s-44.2-35.6-29.4-43.5c14.7-8 106.7-13.5 110.4-24.5 3.6-11.2 25.9-12.4 26.3-3.8" fill="#f47f51"/><path d="m2806.2 1064c0-4.7 360.4-349.4 360.4-349.4s10.6-4.7 0 8.2-333.7 370.7-353.6 361.1c-19.9-9.4-6.8-19.9-6.8-19.9" fill="#4a627c"/><path d="m1559.9 3241.5s-58.6 43.8-40.1 37.3c18.5-6.6 58-30.5 69.4-21.5s-28.7 41.3-14.8 48.9c14 7.6 37.1-41.5 47.7-32.3s-17.7 46.1-10.6 51.4c-8.2-4.4 2.8-32.5 7.8-41.9s-4.8-7.4-8.6-1.4-25.5 39.5-38.9 27.1 8.6-37.7 10.2-40.3 1.2-10.8-6.4-8.2-58.2 30.1-64.6 22.7c-6.3-7.3 32.8-38.2 48.9-41.8m935.2-44.2s-3.4 73.1 3.3 54.6 13.3-64.2 27.4-67.3 13.6 48.4 28.4 42.4c14.7-6-8.5-55 5.3-57.3s24.3 43 33 40.8c-8.6 3.5-23.3-22.8-27.4-32.6s-8.7-1-6.5 5.7 14.3 44.8-3.7 47.3-23.7-30.6-24.7-33.4c-1-2.9-7.6-7.8-10.4-.3s-13.7 64.1-23.5 64.3c-9.7.4-8.7-49.4-1.2-64.2" fill="#e65e75"/><path d="m1782.1 1925.3c-2.8 10.6-4 21.6-3.5 32.5.1 2.8 4.4 2.8 4.3 0-.4-10.6.7-21.1 3.4-31.3.7-2.8-3.5-3.9-4.2-1.2m-3 50.1c.1 9-.4 18.1-1.6 27-.2 1.2 1.1 2.2 2.2 2.2 1.3 0 2-1 2.2-2.2 1.2-9 1.7-18 1.6-27-.2-2.8-4.5-2.8-4.4 0m-1.4 43.1c.1 7.8-.5 15.6-2.1 23.3-.5 2.7 3.6 3.9 4.2 1.1 1.6-8.1 2.3-16.3 2.2-24.5-0-2.7-4.4-2.7-4.3.1m-2.3 39.8c-1.9 7.6-2.7 15.4-2.2 23.2.1 1.2.9 2.2 2.2 2.2 1.1 0 2.2-1 2.2-2.2-.5-7.4.2-14.9 2-22.1.6-2.7-3.6-3.8-4.2-1.1m-2.5 39.9c-1.4 8.3-2.2 16.8-2.2 25.2 0 2.8 4.3 2.8 4.3 0 0-8.1.6-16.1 2-24.1.2-1.2-.3-2.3-1.5-2.7-.9-.2-2.4.4-2.6 1.6m-4.3 40.5c-.4 6.9-1.2 13.8-2.7 20.5-.2 1.1.3 2.3 1.5 2.7 1.1.3 2.4-.4 2.7-1.5 1.5-7.1 2.5-14.4 2.8-21.7.2-2.8-4.2-2.7-4.3 0m-1.5 38c-.6 6.9-1.3 13.8-1.9 20.8-.1 1.2 1.1 2.2 2.2 2.2 1.3 0 2.1-1 2.2-2.2.6-6.9 1.3-13.8 1.9-20.8.1-1.2-1.1-2.2-2.2-2.2-1.3.1-2.1 1.1-2.2 2.2m-2.5 35.4c-.4 7.5-.9 15-1.3 22.4-.2 2.8 4.2 2.8 4.3 0 .4-7.5.9-15 1.3-22.4.2-2.8-4.1-2.8-4.3 0m-2.8 41.3c.6 8.7.3 17.5-.8 26.1-.1 1.2 1.1 2.2 2.2 2.2 1.3 0 2-1 2.2-2.2 1.1-8.7 1.4-17.4.8-26.1-.2-2.8-4.6-2.8-4.4 0m-1.1 44c2.2 9.4 2.8 19 1.9 28.6-.3 2.8 4.1 2.8 4.3 0 1-10 .2-20-2.1-29.8-.6-2.7-4.7-1.6-4.1 1.2" fill="#fcfcfc"/><path d="m1807 2011.3c20.9 3.4 42.7-2.7 58.4-17.1 8.4-7.7 14.2-17.7 19.5-27.7 6-11.2 11.1-23 13-35.6.9-6.2-8.6-8.9-9.5-2.6-1.7 11.1-5.8 21.3-10.9 31.2-4.8 9.2-9.8 18.6-17.2 25.9-13 13-32.4 19.4-50.6 16.4-6.3-1.1-9 8.4-2.7 9.5" fill="#75afe8"/><path d="m1658.9 460.2c0-72.4 171-131.2 381.9-131.2s381.9 58.7 381.9 131.2c0 72.4-171 131.2-381.9 131.2-10.1 0-20.1-.1-30-.4l39 149.2c2.5 9.5-9.4 15.9-16 8.7-47.9-52.1-148.2-168.8-148.2-168.8-133.5-20.4-226.7-66.4-226.7-119.9" fill="#9bc6ee"/><path d="m2175.7 470.4c0 8.5 6.9 15.4 15.3 15.4 8.5 0 15.3-6.9 15.3-15.4s-6.9-15.3-15.3-15.3-15.3 6.8-15.3 15.3m-93.1 0c0 8.5 6.9 15.4 15.3 15.4s15.3-6.9 15.3-15.4-6.9-15.3-15.3-15.3-15.3 6.8-15.3 15.3m-93.1 0c0 8.5 6.9 15.4 15.3 15.4 8.5 0 15.3-6.9 15.3-15.4s-6.9-15.3-15.3-15.3c-8.5 0-15.3 6.8-15.3 15.3" fill="#fff"/><path d="m2012.3 1714.2c3.9 25.9 17 50.8 14.5 77.5-.5 5.9-1.9 12.3-5.1 17.4-3.8 6.1-10.1 8.7-16.6 11.2-12.6 4.7-25.7 8-39 9.6-4.8.6-4.8 8.2 0 7.6 14.7-1.9 29.1-5.2 42.9-10.6 12.8-5 20.9-12.6 24-26.3 6.9-30.2-9.1-59.1-13.4-88.4-.7-4.8-8-2.7-7.3 2m-195-4.3c20.7 4.8 42.8 1.5 61-9.5 4.2-2.5.4-9.1-3.8-6.5-16.5 9.9-36.4 13.1-55.2 8.7-4.8-1.1-6.8 6.2-2 7.3m295.2-496.4c9 34.1 15.6 68.8 19.7 103.9.6 4.8 8.1 4.8 7.6 0-4.1-35.7-10.8-71.1-19.9-105.9-1.3-4.7-8.6-2.7-7.4 2m47.2 649.8c15.5-9.3 31.2-17.9 47.5-25.6 13.2-6.3 24.4-15.4 31.8-28.3 8-14 8.9-29.3 9.5-45.1.7-17 .5-34.2-4.9-50.6-1.5-4.6-8.8-2.6-7.3 2 5.1 15.4 5.2 31.5 4.6 47.6-.6 15.3-1.2 30.2-9.3 43.7-7.6 12.5-18.9 19.8-31.9 25.8-15.1 7-29.5 15.4-43.8 23.9-4.2 2.6-.4 9.1 3.8 6.6m-130.3-674.4c9.8 2.6 20 3.7 30.1 3.3 4.3-.2 10.2-.1 12.1-4.9.9-2.3.5-4.9.6-7.3.2-2.5.8-4.9 1.5-7.3 1.5-4.7-5.8-6.7-7.3-2-1.3 4.1-1.9 8.4-1.9 12.7v1.3s.5-.8.6-.6c0 0-2.2.4-2.3.4-2.1.2-4.3.3-6.4.3-8.5.1-16.9-.9-25.1-3.1-4.6-1.3-6.6 6-1.9 7.2m661.8-111.1c-1.1 5.1-.2 10.5 2.9 14.8 3.4 4.7 8 6.2 13.3 7.9 2.6.9 3.5 2.1 4.1 4.8.7 3.3 1.2 6.7 1.8 10.1 1.3 7 2.6 14.1 3.8 21.1.9 4.8 8.2 2.8 7.3-2-1.2-6.5-2.4-13-3.5-19.5-.6-3.2-1.2-6.5-1.8-9.7-.5-2.9-1.1-5.7-3-8-3.3-3.9-8.3-3.8-12.5-6-4-2.1-6.1-7-5.1-11.4 1.1-4.8-6.2-6.8-7.3-2.1m-911 652.2c-2.8 10.2-7 20.5-15.4 27.4-4.5 3.7-9.3 6.8-13.4 10.9-3.7 3.8-7 8-10.1 12.2-5.8 8-13.4 17-14.4 27.1-1.1 11.1 4.8 20.9 11.1 29.5 2.8 3.9 9.4.1 6.5-3.8-6.1-8.5-13.2-19.3-8.8-30.1 1.9-4.7 5.2-9 8.1-13.1 3.1-4.6 6.3-9.1 10-13.3 6.6-7.5 15.7-12.1 21.9-19.9 5.9-7.3 9.3-16.1 11.7-25.1 1.4-4.5-5.9-6.5-7.2-1.8m108.1-506.2c-49.1 48.5-91.6 104.5-121.7 166.7-8.4 17.3-15.7 35.2-22 53.4-1.6 4.6 5.7 6.6 7.3 2 22.1-64.4 58.6-123.3 102.6-174.8 12.4-14.5 25.5-28.5 39.1-41.9 3.5-3.5-1.8-8.8-5.3-5.4" fill="#e4493c"/><path d="m2082.3 1231.5c8.5 0 8.5-13.2 0-13.2s-8.5 13.2 0 13.2m10.1 28.2c8.5 0 8.5-13.2 0-13.2-8.4 0-8.5 13.2 0 13.2m2.8 29.3c8.5 0 8.5-13.2 0-13.2-8.5.1-8.5 13.2 0 13.2" fill="#206664"/><path d="m3571.7 883.7s-4.6-27.4 6.7-42.7 48.1 35.7 48.1 35.7 3.5 14.9-5.5 9-32.5-44.3-34.1-30.9c-1.5 13.2-3.9 56.7-15.2 28.9m-12.8-336.3s22.7-16.1 41.3-12.6c18.7 3.5-11.1 58.9-11.1 58.9s-11.9 9.7-10.5-1 25.6-48.6 13-44.2-52.7 21.2-32.7-1.1m283.8 678.7s3.6 27.7-10.7 42.1-54.2-39.3-54.2-39.3-3.2-15.1 7-8.6c10.2 6.6 35.3 46.7 38 33.5 2.8-13.1 8.4-56.3 19.9-27.7" fill="#75afe8"/><path d="m3856.1 832.8s-25.3 11.9-43.3 2.7 20.9-63.5 20.9-63.5 13.4-7.6 10.3 4.1-33.7 47.8-20.3 46.4 56.2-9.4 32.4 10.3" fill="#3784d1"/><path d="m4042.6 1207.5s-.1-28 15.9-40.4c16-12.5 48.8 45.8 48.8 45.8s1.2 15.4-8 7.6c-9.3-7.8-29.1-50.7-33.5-38s-15.4 54.9-23.2 25m589.9-371.5s-19.7 19.8-39.8 17.3-2-66.9-2-66.9 10-11.7 11.1.3c1 12.1-15.4 56.4-3.3 50.5 12-5.9 49.7-27.8 34-1.2" fill="#75afe8"/><path d="m4447.2 1205.4s-12.3 14.6-27.9 9.6-10.8-58.7-10.8-58.7 6-8.9 8.5 1.8-3.9 47.1 4.5 43.7c8.4-3.5 33.9-17.5 25.7 3.6" fill="#3784d1"/></svg>