<svg height="682.89" viewBox="0 0 865.76 682.89" width="865.76" xmlns="http://www.w3.org/2000/svg"><path d="m124.31 287.14 72.27 112.17h14.69l66.37-94.13" fill="#a6dced" opacity=".2"/><path d="m220.24 180.32-52.02-.45c-6.87-.06-12.49 5.46-12.55 12.34l-.27 30.96 3.38.03-.2 23.67-3.38-.03-.24 28.25c-.06 6.83 5.4 12.43 12.23 12.55l52.12.91.94-108.23z" fill="#a6dced"/><path d="m219.8 289.05-52.63-.92c-7.07-.12-12.78-5.98-12.72-13.05l.25-28.75 3.38.03.2-22.67-3.38-.03.27-31.46c.03-3.46 1.4-6.7 3.87-9.12s5.74-3.78 9.19-3.71l52.52.46-.95 109.23zm-64.1-41.71-.24 27.75c-.06 6.53 5.21 11.93 11.74 12.05l51.62.9.93-107.22-51.52-.45s-.07 0-.11 0c-3.15 0-6.12 1.21-8.37 3.43-2.28 2.24-3.54 5.23-3.57 8.42l-.26 30.46 3.38.03-.21 24.67-3.38-.03z" fill="#231f20"/><path d="m197.03 247.62h-38.33c-.28 0-.5-.22-.5-.5s.22-.5.5-.5h37.83v-22.68h-37.83c-.28 0-.5-.22-.5-.5s.22-.5.5-.5h38.33c.28 0 .5.22.5.5v23.68c0 .28-.22.5-.5.5z" fill="#231f20"/><path d="m195.26 218.3h-24.66c-2.49 0-4.52-2.03-4.52-4.52v-16.76c0-2.49 2.03-4.52 4.52-4.52h24.66c2.49 0 4.52 2.03 4.52 4.52v16.76c0 2.49-2.03 4.52-4.52 4.52zm-24.66-24.8c-1.94 0-3.52 1.58-3.52 3.52v16.76c0 1.94 1.58 3.52 3.52 3.52h24.66c1.94 0 3.52-1.58 3.52-3.52v-16.76c0-1.94-1.58-3.52-3.52-3.52z" fill="#fff"/><path d="m657.94 628 1.45 26.59c.96 0 1.73.78 1.73 1.73v5.97c0 .88-.66 1.63-1.54 1.72-7.64.85-42.11 4.4-67.11 2.12-2.02-.18-3.58-1.86-3.61-3.89-.02-1.52.42-3.28 2.03-4.77 0 0 2.89-4.91 9.83-7.51l20.52-20.52s-.29-5.49 4.34-8.38l4.91-6.07 17.05 3.18z" fill="#ffb769"/><path d="m611.2 667.39c-6.48 0-12.9-.21-18.78-.75-2.28-.21-4.03-2.09-4.07-4.38-.03-2.02.69-3.73 2.14-5.1.38-.62 3.34-5.12 9.94-7.63l20.29-20.29c0-1.11.24-5.84 4.5-8.56l5.05-6.24 17.49 3.26 10.66 10.06v.2s1.43 26.17 1.43 26.17c1 .22 1.76 1.11 1.76 2.18v5.97c0 1.14-.85 2.09-1.98 2.22-5.21.58-27.13 2.87-48.43 2.87zm19.48-51.85-4.85 5.95c-4.32 2.7-4.1 7.88-4.1 7.93v.22s-20.84 20.79-20.84 20.79c-6.67 2.5-9.54 7.25-9.57 7.3l-.09.11c-1.27 1.17-1.9 2.65-1.87 4.4.03 1.77 1.39 3.23 3.16 3.4 25.13 2.29 60.23-1.37 67.01-2.12.62-.07 1.1-.6 1.1-1.23v-5.97c0-.68-.55-1.23-1.23-1.23h-.47l-1.46-26.86-10.15-9.59-16.62-3.1z" fill="#231f20"/><path d="m657.83 605.51c-.18.53.11 22.49.11 22.49l-6.94 7.23s-13.01-19.94-25.43-14.16v-10.4s28.61-8.09 28.61-8.09l3.65 2.94z" fill="#fff"/><path d="m650.93 636.03-.34-.53c-.13-.2-12.91-19.51-24.8-13.98l-.71.33v-11.57l29.23-8.27 4.12 3.32-.1.3c-.11.93.01 13.84.13 22.36v.2s-7.51 7.83-7.51 7.83zm-20.59-16.53c9.88 0 18.84 12.18 20.73 14.94l6.37-6.63c-.1-7.58-.23-19.71-.12-22.06l-3.25-2.62-28 7.92v9.27c1.43-.56 2.86-.81 4.27-.81z" fill="#231f20"/><path d="m608.52 659.53c-1.96 0-3.9-.03-5.79-.1-.28 0-.49-.24-.48-.52 0-.28.24-.49.52-.48 24.52.86 56.23-4.28 56.55-4.33.27-.04.53.14.57.41s-.14.53-.41.57c-.29.05-27.42 4.44-50.95 4.44z" fill="#231f20"/><path d="m596.1 659.57c-1.62 0-3.77-.15-5.81-.75-.27-.08-.42-.36-.34-.62s.36-.42.62-.34c3.73 1.1 8.01.58 8.05.58.28-.03.52.16.56.43.03.27-.16.52-.43.56-.09.01-1.14.14-2.65.14z" fill="#231f20"/><path d="m622.17 653.18c-1.31 0-2.62-.13-3.93-.41-.1-.02-13.01-2.02-17.56-2.3-.28-.02-.48-.25-.47-.53.02-.28.25-.48.53-.47 4.59.29 17.55 2.3 17.68 2.32 15.73 3.37 32.03-16.67 32.19-16.87.17-.21.49-.25.7-.08.22.17.25.49.08.7-.63.78-14.35 17.64-29.22 17.64z" fill="#231f20"/><path d="m587.42 271.06c9.25 4.05 20.81 17.34 20.81 17.34 12.02 14.55 35.59 21.41 47.45 24.05 7.24 1.61 14.29 4.02 20.9 7.4 14.46 7.39 21.93 15.14 25.79 21.18 4.13 6.46 4.13 10.96 4.13 10.96 3.22-5.37 4.41-13.36 4.81-19.66.55-8.69 1.99-17.3 4.12-25.74l3.2-12.69 16.47-56.94 13.81 29.64s.08.03.08-.01c4.1-28.75 25.12-26.44 25.12-26.44l8.96-23.41-14.74-35.55c-3.76-10.98-39.31-25.43-39.31-25.43l-21.68 3.47-22.25-15.61-34.97-1.45c-11.56-.29-22.54 6.36-22.54 6.36l-28.9 20.23c16.19 2.89 17.63 34.1 17.63 34.1 1 6.52-2.78 10.64-3.8 11.62-.07.07 0 .18.09.17l9.49-1.67c-2.8 3.88-4.15 9.36-4.66 11.9-.25 1.23-.6 2.45-1.04 3.62-3.18 8.33-7.59 13.96-7.59 13.96-3.96 4.09-6.55 8.28-8.21 11.74-3.06 6.37-7.5 11.98-12.86 16.6l-.32.28z" fill="#ffb769"/><path d="m706.01 353.78v-1.79s-.07-4.45-4.06-10.69c-4.99-7.81-13.6-14.88-25.6-21-6.27-3.2-13.27-5.68-20.78-7.35-12.69-2.83-35.75-9.74-47.72-24.22-.11-.12-11.59-13.25-20.62-17.2l-.73-.32.92-.8c5.49-4.73 9.77-10.25 12.74-16.43 2.09-4.35 4.88-8.34 8.3-11.87 0-.02 4.36-5.63 7.48-13.79.44-1.14.78-2.33 1.02-3.54.52-2.62 1.73-7.35 4.08-11.1l-8.33 1.47c-.26.05-.52-.08-.64-.32s-.07-.52.12-.7c1.1-1.05 4.61-4.98 3.65-11.19-.02-.36-1.62-30.9-17.22-33.69l-1.19-.21 29.89-20.92c.14-.09 11.26-6.72 22.84-6.45l35.13 1.45 22.21 15.58 21.61-3.46.13.05c1.46.59 35.8 14.66 39.59 25.74l14.81 35.7-9.17 23.96-.38-.04c-.84-.09-20.6-1.89-24.58 26.02l-.05.37-.78.15-.2-.37-13.25-28.43-16.1 55.66-3.2 12.67c-2.19 8.69-3.58 17.32-4.11 25.65-.38 6-1.54 14.32-4.88 19.89l-.92 1.54zm-117.67-82.85c9.1 4.37 19.81 16.61 20.27 17.14 11.79 14.27 34.62 21.09 47.18 23.89 7.59 1.69 14.67 4.2 21.02 7.44 12.16 6.21 20.9 13.39 25.99 21.36 2.74 4.28 3.69 7.7 4.03 9.6 2.67-5.34 3.65-12.66 3.99-18.07.54-8.39 1.93-17.08 4.14-25.83l3.2-12.69 16.85-58.23 13.74 29.48c4.27-25.25 22.18-25.53 25.05-25.41l8.76-22.88-14.66-35.37c-3.54-10.35-36.56-24.14-38.91-25.11l-21.74 3.48-22.3-15.64-34.83-1.44c-11.26-.27-22.16 6.22-22.26 6.29l-27.94 19.56c15.33 4.08 16.85 33.06 16.91 34.32.84 5.46-1.57 9.29-3.12 11.11l9.52-1.68-.72 1c-2.79 3.86-4.13 9.47-4.58 11.7-.25 1.26-.61 2.51-1.07 3.7-3.17 8.31-7.61 14.03-7.66 14.09-3.38 3.49-6.11 7.39-8.15 11.65-2.98 6.2-7.25 11.76-12.72 16.53z" fill="#231f20"/><path d="m726.73 213.47c-.09 0-.18-.02-.27-.08-.23-.15-.3-.46-.16-.69 17.8-28.14 38.75-36.15 38.96-36.23.26-.1.55.04.64.29s-.04.55-.29.64c-.21.08-20.85 7.99-38.46 35.82-.09.15-.26.23-.42.23z" fill="#231f20"/><path d="m735.11 237.46c-.19 0-.38-.11-.46-.3l-5.2-11.85c-.11-.25 0-.55.26-.66.25-.11.55 0 .66.26l5.2 11.85c.11.25 0 .55-.26.66-.07.03-.13.04-.2.04z" fill="#231f20"/><path d="m622.1 213.47c-.12 0-.23-.04-.33-.12-.21-.18-.23-.5-.05-.71 1.9-2.17 3.56-4.39 4.95-6.6 1.31-2.09 2.4-4.51 3.32-7.39 1.85-5.77 4.69-7.95 4.81-8.04.22-.17.53-.12.7.1s.12.53-.1.7c-.03.02-2.71 2.11-4.46 7.55-.95 2.97-2.07 5.46-3.43 7.62-1.41 2.25-3.11 4.52-5.04 6.73-.1.11-.24.17-.38.17z" fill="#231f20"/><path d="m639.73 184.57h-.01c-.28 0-.5-.23-.49-.51l.85-40.32c0-.28.25-.5.51-.49.28 0 .5.23.49.51l-.85 40.32c0 .27-.23.49-.5.49z" fill="#231f20"/><path d="m598.69 168.75s-2.89.58-2.31 5.78c0 0 5.24-1.2 7.54-3.78 0 0-1.47-1.14-5.22-2z" fill="#231f20"/><path d="m595.95 175.14-.06-.56c-.62-5.59 2.58-6.3 2.71-6.33l.11-.02.1.02c3.82.88 5.35 2.05 5.42 2.09l.42.33-.35.4c-2.37 2.67-7.58 3.88-7.8 3.93l-.55.12zm2.76-5.88c-.43.15-2.12.96-1.88 4.63 1.28-.35 4.46-1.36 6.29-3.05-.67-.37-2.08-1.03-4.42-1.58z" fill="#231f20"/><path d="m607.94 210.08s.29 4.05 4.34 4.62c0 0 3.39-2.06 4.15-8.4l-8.48 3.78z" fill="#231f20"/><path d="m612.38 215.22-.18-.03c-4.39-.63-4.76-5.04-4.76-5.08l-.03-.35 9.61-4.28-.11.88c-.78 6.5-4.24 8.68-4.39 8.77l-.15.09zm-3.9-4.84c.16.9.86 3.29 3.67 3.79.59-.44 2.85-2.43 3.65-7.05l-7.31 3.26z" fill="#231f20"/><path d="m600.72 114.12s-3.18 6.94-8.67 36.13l-3.47 24.86s10.16 1.11 15.34-4.36c0 0 12.32 7.78 12.51 35.55l-8.48 3.78s-44.22 15.9-52.6-2.6c0 0-3.09-6.5-2.93-17.44.08-5.65 1.12-11.24 2.88-16.61l20.28-61.91s-.58-16.47 1.45-23.41l-8.59-14.07c-.99-1.62-.43-3.75 1.24-4.67 1.53-.84 3.46-.36 4.41 1.11l7.62 11.74c.78 1.21 2.36 1.61 3.63.93.93-.5 1.49-1.48 1.45-2.54l-.66-17.69c-.07-1.97 1.6-3.56 3.56-3.39 1.68.15 2.97 1.54 2.99 3.22l.22 15.21c.01.82.68 1.48 1.5 1.48.67 0 1.25-.44 1.44-1.08l3.24-11.01c.44-1.5.07-3.1-.91-4.33-.92-1.16-1.73-2.78-.98-4.38.18-.38.48-.69.84-.89 1.35-.74 5.14-2.22 7.02 3.19 0 0 1.16 3.18-.87 9.54 0 0-2.89 8.67-2.89 10.98 0 0 2.31 2.6 4.34-2.31 0 0 2.71-4.74 3.34-10.02.13-1.1-.02-2.23-.51-3.22-.62-1.25-1.29-3.29-.05-4.67.61-.68 1.56-.93 2.45-.74 1.87.39 5.17 2 4.08 8.48-.04.23-.09.46-.16.68-.89 2.94-7.49 24.76-8.57 28 0 0 0 10.4-5.49 16.47z" fill="#fff"/><path d="m575.19 216.98c-8.97 0-17.1-2.23-20.3-9.3-.12-.26-3.13-6.73-2.97-17.65.08-5.48 1.06-11.12 2.91-16.76l20.25-61.82c-.05-1.44-.49-16.42 1.41-23.27l-8.47-13.88c-.55-.9-.71-1.96-.43-2.99.27-1.02.93-1.87 1.86-2.38 1.75-.96 3.98-.41 5.07 1.27l7.62 11.74c.64.98 1.94 1.32 2.97.76.75-.41 1.22-1.22 1.19-2.08l-.66-17.69c-.04-1.08.39-2.13 1.17-2.88s1.85-1.12 2.93-1.03c1.94.17 3.42 1.76 3.45 3.71l.22 15.21c0 .54.46.99 1 .99.44 0 .84-.3.96-.72l3.24-11.01c.38-1.3.08-2.75-.82-3.88-1.37-1.73-1.73-3.42-1.04-4.9.22-.47.59-.87 1.06-1.12.91-.5 2.69-1.23 4.47-.54 1.44.55 2.54 1.9 3.27 4.01.05.13 1.19 3.41-.86 9.85-.03.09-2.7 8.13-2.86 10.62.21.18.66.47 1.17.38.77-.14 1.53-1.06 2.19-2.67.05-.1 2.69-4.77 3.3-9.89.13-1.06-.03-2.07-.46-2.94-1.06-2.16-1.05-4.02.03-5.23.71-.79 1.83-1.13 2.93-.9 1.74.37 5.66 1.98 4.47 9.06-.04.25-.1.5-.18.74-.76 2.5-7.38 24.4-8.55 27.93-.01 1.07-.26 10.74-5.56 16.67-.33.78-3.47 8.66-8.61 35.95l-3.39 24.31c2.1.13 10.11.29 14.41-4.24l.28-.3.35.22c.51.32 12.56 8.25 12.74 35.97v.33s-8.78 3.91-8.78 3.91c-1.16.42-18.2 6.45-32.96 6.45zm-3.91-147.52c-.46 0-.93.11-1.36.35-.69.38-1.17 1-1.38 1.76s-.09 1.54.32 2.21l8.7 14.26-.06.21c-1.98 6.78-1.43 23.09-1.43 23.25v.09s-.02.08-.02.08l-20.27 61.91c-1.82 5.54-2.78 11.08-2.86 16.46-.16 10.67 2.85 17.15 2.88 17.21 8.1 17.87 51.54 2.5 51.98 2.34l8.15-3.63c-.25-24.35-10.04-33.09-11.95-34.57-5.36 5.24-15.03 4.24-15.45 4.2l-.51-.06 3.54-25.37c5.44-28.94 8.58-35.98 8.71-36.27l.08-.13c5.29-5.85 5.36-16.04 5.36-16.14l.03-.16c1.09-3.27 7.81-25.46 8.57-27.98.06-.2.11-.41.15-.61 1.01-6-1.88-7.53-3.69-7.91-.75-.16-1.51.06-1.98.58-1.07 1.19-.38 3.09.12 4.12.51 1.04.71 2.25.56 3.5-.64 5.33-3.29 10.02-3.4 10.21-.79 1.92-1.78 3.03-2.93 3.22-1.27.22-2.18-.78-2.21-.83l-.13-.14v-.19c0-2.37 2.8-10.78 2.92-11.14 1.93-6.07.88-9.18.87-9.21-.63-1.82-1.54-2.96-2.68-3.41-1.4-.54-2.88.07-3.63.48-.28.15-.5.39-.63.67-.53 1.13-.22 2.42.92 3.86 1.1 1.39 1.47 3.17.99 4.78l-3.24 11.01c-.25.85-1.04 1.44-1.92 1.44-1.09 0-1.98-.88-2-1.97l-.22-15.21c-.02-1.43-1.11-2.6-2.54-2.73-.79-.07-1.58.21-2.16.76s-.89 1.32-.86 2.12l.66 17.69c.05 1.23-.63 2.41-1.71 3-1.49.8-3.37.32-4.28-1.1l-7.62-11.74c-.54-.83-1.45-1.29-2.39-1.29z" fill="#231f20"/><path d="m594.36 111.44c-.23 0-.44-.17-.49-.4-1.81-9.32 2.22-12.82 3.41-13.64-.91-5.8-.56-9.48 1.04-10.93.68-.62 1.45-.67 1.86-.59 5.32-.23 6.48 11.24 6.52 11.72.03.27-.17.52-.45.55s-.52-.17-.55-.45c-.31-3.08-1.87-11.06-5.54-10.82-.05 0-.11 0-.16-.02-.01 0-.53-.11-1.04.37-.76.71-1.84 3-.65 10.34.03.21-.07.42-.26.52-.21.11-5.13 2.89-3.21 12.76.05.27-.12.53-.4.59-.03 0-.06 0-.1 0z" fill="#231f20"/><path d="m585.11 188.61c-.06 0-.12-.01-.18-.03-.26-.1-.39-.39-.29-.64 2.55-6.8 3.43-12.84 3.44-12.9.04-.27.29-.46.57-.42.27.04.46.29.42.57 0 .06-.9 6.2-3.5 13.11-.08.2-.27.32-.47.32z" fill="#231f20"/><path d="m697.54 359.21s4.02.19 7.07-3.78c1.59-2.06 2.02-4.79 1.23-7.28-.56-1.77-1.59-4.17-3.45-7.21z" fill="#231f20"/><path d="m697.64 359.72c-.07 0-.11 0-.13 0l-.62-.03 5.31-20 .61 1c1.62 2.65 2.8 5.12 3.5 7.32.85 2.67.36 5.56-1.31 7.73-2.91 3.78-6.62 3.98-7.36 3.98zm4.93-17.5-4.37 16.46c1.19-.12 3.84-.73 6.02-3.56 1.47-1.91 1.9-4.46 1.15-6.82-.59-1.85-1.53-3.89-2.8-6.09z" fill="#231f20"/><path d="m488 396.79c4.91-5.2 19.94-1.45 19.94-1.45 31.79 7.23 35.55 18.21 35.55 18.21l12.72-85.26 28.9 17.92c18.21 10.12 35.26 13.01 35.26 13.01l1.16 41.62-2.6 40.75-12.72 168.79c20.81 6.36 55.78-6.07 55.78-6.07l8.96-71.1c6.36-38.44 9.54-87 9.54-87 .29-24.86 4.34-39.02 4.34-39.02l17.55-66.16c-4.19-6.56-12.63-15.13-29.65-23.06-5.06-2.36-10.4-4.09-15.86-5.26-11.41-2.44-36.19-9.26-48.62-24.31 0 0-11.56-13.3-20.81-17.34-34.97-25.72-53.76-29.19-53.76-29.19-7.08-1.3-13.01-.76-17.91.79-11.71 3.69-19.9 14.26-20.93 26.49l-4.22 50.18-2.6 77.46z" fill="#a6dced"/><path d="m620.17 612.67c-5.02 0-9.86-.52-14.11-1.81l-.38-.12.03-.4 12.72-168.79 2.6-40.75-1.15-41.17c-2.7-.52-18.48-3.8-35.01-12.99l-28.28-17.53-12.91 86.54-.66-1.94c-.04-.1-4.16-10.83-35.19-17.88-.16-.04-14.81-3.63-19.47 1.3l-.91.96 2.65-78.78 4.22-50.21c1.06-12.62 9.41-23.19 21.28-26.92 5.5-1.73 11.61-2 18.15-.8.19.03 19.28 3.78 53.92 29.25 9.24 4.07 20.46 16.9 20.94 17.45 12.51 15.14 37.98 21.93 48.35 24.15 5.65 1.21 11.03 2.99 15.97 5.29 17.67 8.23 25.99 17.18 29.86 23.24l.12.19-17.6 66.37c-.04.15-4.03 14.41-4.32 38.9-.03.51-3.25 49.05-9.54 87.07l-9 71.39-.29.1c-.28.1-22.48 7.89-41.99 7.89zm-13.43-2.65c19.45 5.68 51.41-4.92 54.8-6.08l8.92-70.79c6.28-37.99 9.5-86.48 9.53-86.97.29-24.61 4.31-38.98 4.35-39.12l17.49-65.94c-3.85-5.94-12.05-14.64-29.32-22.69-4.87-2.27-10.17-4.03-15.75-5.22-10.47-2.24-36.21-9.11-48.91-24.48-.11-.12-11.59-13.25-20.62-17.2l-.1-.06c-34.44-25.33-53.37-29.07-53.55-29.1-6.38-1.17-12.32-.91-17.67.77-11.48 3.61-19.56 13.84-20.58 26.05l-4.22 50.18-2.56 76.28c5.71-4.18 18.93-.94 19.53-.79 25.38 5.77 33.03 13.89 35.16 17.13l12.61-84.52 29.55 18.32c17.9 9.94 34.91 12.91 35.08 12.94l.4.07 1.17 42.03-2.6 40.8-12.69 168.39z" fill="#231f20"/><path d="m692.05 356.25c-.14 0-.28-.06-.38-.17-2.38-2.72-4.64-5.57-6.71-8.48-1.68-2.36-1.95-5.5-.68-8.19 2.41-5.13 3.5-12.84 3.51-12.92.04-.27.29-.46.56-.43.27.04.46.29.43.56-.04.32-1.13 7.94-3.6 13.2-1.11 2.36-.88 5.12.59 7.19 2.05 2.88 4.29 5.7 6.65 8.4.18.21.16.52-.05.71-.09.08-.21.12-.33.12z" fill="#231f20"/><path d="m677.49 483.64s-.02 0-.03 0c-.28-.02-.49-.25-.47-.53 1.04-17.47.68-58.45.68-58.86 0-30.94 9.46-61.98 9.56-62.29.08-.26.36-.41.63-.33.26.08.41.36.33.63-.1.31-9.52 31.21-9.52 61.99 0 .41.36 41.42-.68 58.93-.02.27-.24.47-.5.47z" fill="#231f20"/><path d="m620.37 359.71c-.27 0-.49-.22-.5-.49l-.87-39.89c0-.28.21-.5.49-.51.27 0 .5.21.51.49l.87 39.89c0 .28-.21.5-.49.51z" fill="#231f20"/><path d="m617.77 331.39c-.13 0-.26-.05-.36-.15-.22-.23-22.84-23.55-52.2-40.09-.24-.14-.33-.44-.19-.68.13-.24.44-.33.68-.19 29.49 16.61 52.2 40.03 52.43 40.26.19.2.19.52-.01.71-.1.09-.22.14-.35.14z" fill="#231f20"/><path d="m535.98 393s-.03 0-.04 0c-.28-.02-.48-.26-.46-.54l5.78-72.88c-.3-7.33 2.35-8.43 2.65-8.53 1.91-.34 2.99-.91 3.2-1.67.28-.98-.88-2.27-1.35-2.68-.04-.03-.07-.07-.09-.11-2.92-4.7-3.72-8.29-2.35-10.67 1.2-2.1 3.72-2.64 5.07-2.77l-1.56-2.45c-2.57-4.32-3.22-7.14-1.98-8.65 1.63-1.99 5.86-.54 6.04-.47.26.09.4.38.31.64s-.38.4-.64.31c-1.04-.36-3.95-1.04-4.93.16-.52.63-.94 2.45 2.06 7.49l2.02 3.17c.1.16.1.35.01.51s-.27.26-.45.25c-.03 0-3.72-.06-5.08 2.31-1.14 2-.35 5.31 2.3 9.58.35.32 2.06 2.01 1.6 3.65-.33 1.18-1.65 1.97-3.92 2.37s-2.16.99-1.9 7.58l-5.78 72.94c-.02.26-.24.46-.5.46z" fill="#231f20"/><path d="m545.33 400.16c-.14 0-.28-.06-.38-.18-.16-.19-16.68-18.9-56.42-14.69-.28.03-.52-.17-.55-.44s.17-.52.44-.55c40.3-4.27 57.12 14.84 57.29 15.04.18.21.15.53-.06.7-.09.08-.21.12-.32.12z" fill="#231f20"/><path d="m556.21 328.79s-.07 0-.1 0c-.27-.05-.45-.32-.39-.59.04-.19 3.73-18.86 2.88-30.79-.02-.28.19-.51.46-.53s.51.19.53.46c.86 12.07-2.86 30.87-2.9 31.06-.05.24-.26.4-.49.4z" fill="#231f20"/><path d="m488 396.79s-4.62 7.51 21.39 16.19l.97-16.87s-16.58-5.1-22.36.68z" fill="#231f20"/><path d="m509.85 413.65-.62-.21c-15.83-5.28-20.54-10.21-21.71-13.41-.77-2.12.02-3.45.05-3.51l.07-.09c5.92-5.93 22.17-1.02 22.86-.81l.37.12-1.03 17.91zm-21.44-16.56c-.11.22-.49 1.16.08 2.66 1.11 2.95 5.57 7.5 20.44 12.54l.91-15.81c-2.47-.7-16.36-4.34-21.43.62z" fill="#231f20"/><path d="m508.81 422.22c5.6-.96 9.61 2.16 12.07 5.13 1.72 2.08 2.65 4.68 2.87 7.37.78 9.71 15.12 4.27 15.12 4.27l4.62-25.43c-6.94-12.43-33.13-17.45-33.13-17.45l-1.55 26.12z" fill="#fff"/><path d="m530.99 441.01c-1.79 0-3.56-.31-4.98-1.2-1.65-1.04-2.58-2.74-2.76-5.05-.22-2.73-1.17-5.18-2.75-7.09-2.3-2.77-6.17-5.88-11.6-4.96l-.62.11 1.62-27.31.56.11c1.08.21 26.51 5.21 33.48 17.69l.09.16-4.71 25.89-.26.1c-.24.09-4.17 1.56-8.06 1.56zm-20.14-19.46c4.79 0 8.26 2.88 10.42 5.49 1.71 2.07 2.74 4.71 2.98 7.65.16 1.97.93 3.42 2.3 4.28 3.64 2.31 10.46.14 11.88-.35l4.54-24.97c-6.31-10.98-28.34-16.11-32.14-16.93l-1.48 24.93c.51-.06 1.02-.09 1.5-.09z" fill="#231f20"/><path d="m441.47 429.45 88.73 52.89c7.51-8.67 8.67-43.35 8.67-43.35s-14.34 5.44-15.12-4.27c-.22-2.69-1.14-5.29-2.87-7.37-2.46-2.97-6.47-6.09-12.07-5.13-6.65 5.2-23.7-2.02-23.7-2.02-22.25-11.56-36.71-4.62-36.71-4.62-7.8 3.47-6.94 13.87-6.94 13.87z" fill="#ffb769"/><path d="m530.3 482.98-89.31-53.24-.02-.26c0-.11-.8-10.8 7.23-14.37.13-.06 14.92-6.91 37.14 4.64.13.05 16.82 7.03 23.16 2.07l.1-.08.12-.02c5.9-1.01 10.08 2.33 12.54 5.3 1.71 2.07 2.74 4.71 2.98 7.65.16 1.97.93 3.42 2.3 4.28 4.06 2.57 12.06-.41 12.14-.44l.7-.27-.02.75c-.05 1.42-1.25 34.96-8.79 43.66l-.27.32zm-88.35-53.83 88.13 52.53c6.49-8.21 8.03-37.02 8.25-41.99-2.14.7-8.55 2.5-12.33.11-1.65-1.04-2.58-2.74-2.76-5.05-.22-2.73-1.17-5.18-2.75-7.09-2.28-2.75-6.11-5.84-11.48-4.98-6.86 5.17-23.4-1.74-24.1-2.04-21.82-11.33-36.15-4.7-36.29-4.63-6.75 3-6.73 11.55-6.67 13.13z" fill="#231f20"/><path d="m512.54 441.71c-6.89 0-16.04-2.43-26.04-11.61-.15-.15-13.09-13.22-17.96-15.2-.26-.1-.38-.4-.27-.65.1-.26.4-.38.65-.27 5.05 2.06 17.74 14.86 18.27 15.41 20.53 18.84 37.25 8.52 37.42 8.42.23-.15.54-.08.69.15s.08.54-.15.69c-.09.06-4.95 3.07-12.62 3.07z" fill="#231f20"/><path d="m534.63 472.41c-.19 0-.37-.11-.46-.29-.04-.09-4.26-9.18-17.23-16.51-.74-.37-18.64-9.37-25.85-17.44-.18-.21-.17-.52.04-.71.21-.18.52-.17.71.04 7.08 7.93 25.39 17.14 25.57 17.23 13.31 7.52 17.5 16.6 17.68 16.98.11.25 0 .55-.25.66-.07.03-.14.04-.21.04z" fill="#231f20"/><path d="m488 436.3c-.12 0-.24-.04-.33-.13l-17.63-15.9s-5.62-4.74-9.88-6.19c-.26-.09-.4-.37-.31-.64.09-.26.37-.4.64-.31 4.44 1.52 9.98 6.19 10.21 6.39l17.64 15.91c.21.19.22.5.04.71-.1.11-.23.17-.37.17z" fill="#231f20"/><path d="m480.77 441.87s11.85 12.72 30.93 22.83c0 0 20.23 8.96 18.5 17.63 0 0-2.02 9.83-22.25 6.36 0 0-39.31-12.72-56.36-28.32 0 0-18-11.11-11.19-29.8 1.02-2.81 2.86-5.27 5.39-6.87 3.38-2.13 8.71-3.32 15.92 1.69l19.08 16.47z" fill="#231f20"/><path d="m515.93 489.94c-2.32 0-4.99-.23-8.08-.76-.46-.14-39.68-12.95-56.61-28.45-.11-.06-18.19-11.49-11.32-30.34 1.09-3 3.08-5.53 5.59-7.12 3.35-2.12 8.93-3.54 16.47 1.71l19.16 16.54c.12.13 12.02 12.78 30.79 22.73.81.36 20.55 9.21 18.75 18.17-.07.36-1.72 7.51-14.75 7.51zm-63.91-67.56c-2.47 0-4.47.8-5.98 1.75-2.33 1.47-4.17 3.82-5.19 6.62-6.58 18.08 10.81 29.09 10.98 29.2 16.85 15.41 55.86 28.15 56.25 28.27 19.38 3.31 21.59-5.89 21.61-5.99 1.64-8.17-18.01-16.98-18.21-17.07-18.6-9.86-30.51-22.34-31.07-22.93l-19.06-16.46c-3.62-2.51-6.74-3.4-9.34-3.4z" fill="#231f20"/><path d="m614.67 600.95c-2.51 0-5.11-.07-7.77-.22-.28-.02-.49-.25-.47-.53s.26-.49.53-.47c34.26 1.96 56.34-9.75 56.56-9.87.24-.13.55-.04.68.2s.04.55-.2.68c-.2.11-19.22 10.21-49.32 10.21z" fill="#231f20"/><path d="m783.09 216.73 12.72-35.26-.79-24.32c-.05-1.44.54-2.83 1.61-3.8l7.85-7.14s3.47 1.16 2.89 5.2l12.43-18.5s4.91-15.32 9.25-12.43c0 0 6.07 2.6.29 13.3l-5.63 10.75c-.38.73-.02 1.63.76 1.89.64.21 1.33-.08 1.62-.68l11.62-23.73c.8-1.64 2.78-2.31 4.41-1.49 1.58.79 2.25 2.68 1.52 4.29l-11.41 25.16 4.91-4.05s-.87-4.62 2.31-5.2c0 0 8.96-.87 5.49 8.38l-3.76 6.65s7.23 5.49 1.45 10.98c0 0-3.47 3.76-10.4 8.96 0 0-10.69 8.67-13.58 19.36l-9.25 58.67s-4.26 25.17-14.52 36.21c-3.91 4.2-10 5.65-15.32 3.52-6.11-2.45-15.05-9.09-23.62-26.72l-4.77-9.35s5.06-17.53 22.98-17.24l8.96-23.41z" fill="#fff"/><path d="m784.58 294.91c-1.77 0-3.54-.33-5.22-1-6.11-2.45-15.21-9.12-23.89-26.97l-4.85-9.52.05-.19c.05-.18 5.29-17.6 23.02-17.6h.09l8.83-23.08 12.68-35.17-.79-24.22c-.05-1.59.59-3.12 1.77-4.19l8.07-7.34.28.09s2.83.98 3.25 4.02l11.46-17.06c.34-1.04 3.85-11.57 7.71-12.92.8-.28 1.56-.18 2.27.29s1.78.79 2.6 3.14c.96 2.76.24 6.39-2.15 10.81l-5.63 10.74c-.11.22-.13.47-.03.7.09.23.28.4.51.48.4.13.83-.05 1.02-.43l11.62-23.73c.45-.91 1.22-1.59 2.18-1.92.96-.32 1.99-.25 2.9.2 1.82.91 2.59 3.08 1.75 4.94l-10.52 23.2 3.03-2.5c-.1-.76-.25-2.8.71-4.19.48-.7 1.17-1.14 2.05-1.3.21-.02 4.08-.36 5.94 2.06 1.22 1.59 1.26 3.94.11 6.99l-3.58 6.35c.92.79 3.37 3.18 3.54 6.2.1 1.89-.7 3.66-2.39 5.26-.01.01-3.56 3.83-10.45 9-.09.07-10.59 8.69-13.4 19.1l-9.24 58.62c-.18 1.04-4.4 25.45-14.65 36.47-2.8 3.01-6.71 4.64-10.66 4.64zm-32.89-37.58 4.68 9.17c8.54 17.57 17.42 24.1 23.36 26.49 5.06 2.03 11 .67 14.77-3.39 10.04-10.8 14.35-35.7 14.4-35.96l9.25-58.67c2.91-10.78 13.32-19.32 13.76-19.68 6.83-5.12 10.32-8.87 10.35-8.91 1.49-1.42 2.19-2.92 2.1-4.51-.18-3.19-3.45-5.71-3.48-5.74l-.35-.26 3.97-7.03c.98-2.63.99-4.66 0-5.96-1.53-1.99-4.97-1.68-5-1.68-.57.11-1.03.39-1.36.88-.94 1.36-.51 3.71-.51 3.73l.05.29-6.8 5.6 12.3-27.12c.62-1.37.05-2.96-1.29-3.63-.67-.33-1.42-.39-2.13-.15s-1.28.74-1.61 1.41l-11.62 23.73c-.4.82-1.36 1.22-2.23.94-.51-.17-.92-.56-1.12-1.06s-.17-1.06.08-1.54l5.63-10.75c2.21-4.09 2.93-7.54 2.1-9.98-.67-1.96-2.08-2.6-2.14-2.63-.53-.34-.97-.4-1.47-.22-2.91 1.02-6.11 9.26-7.11 12.35l-.06.13-13.65 20.31.31-2.16c.43-2.98-1.56-4.2-2.29-4.55l-7.62 6.93c-.96.87-1.49 2.12-1.45 3.42l.8 24.41-.03.09-12.72 35.27-9.08 23.74h-.35c-.14 0-.28 0-.42 0-16.03 0-21.41 14.86-22.01 16.7z" fill="#231f20"/><path d="m770.08 256.24s-.08 0-.13-.02c-.27-.07-.43-.34-.36-.61l4.05-15.61c.07-.27.34-.43.61-.36s.43.34.36.61l-4.05 15.61c-.06.23-.26.37-.48.37z" fill="#231f20"/><path d="m826.83 128.37c-.58 0-1.09-.14-1.55-.42-1.9-1.15-1.89-4.26-1.89-4.39 0-.27.23-.5.5-.5.28 0 .5.23.5.5 0 .03 0 2.67 1.42 3.53.77.47 1.88.33 3.29-.42.24-.13.55-.03.68.21s.03.55-.21.68c-1.02.54-1.93.8-2.73.8z" fill="#231f20"/><path d="m840.83 148.32c-1.34 0-2.86-.47-4.09-2.1-.17-.22-.12-.53.1-.7s.53-.12.7.1c2.3 3.06 5.85 1.11 6 1.02.24-.13.55-.05.68.19.14.24.05.54-.19.68-.02.01-1.46.81-3.21.81z" fill="#231f20"/><path d="m839.16 163.76c-.08 0-.15-.02-.22-.05-4.93-2.47-4.06-5.92-4.02-6.07.72-1.66 1.69-2.64 2.92-2.98 1.85-.53 3.56.63 3.63.68.23.16.28.47.13.69-.16.23-.47.28-.69.13-.01 0-1.4-.94-2.8-.54-.92.26-1.67 1.06-2.24 2.35 0 .04-.64 2.76 3.52 4.84.25.12.35.42.22.67-.09.18-.26.28-.45.28z" fill="#231f20"/><path d="m833.38 163.76c-.28 0-.5-.22-.5-.5s.22-.5.49-.5c.07 0 1.42-.08 2.42-2.17.12-.25.42-.36.67-.23.25.12.35.42.23.67-1.3 2.71-3.24 2.74-3.32 2.74z" fill="#231f20"/><path d="m810.26 175.32c-.1 0-.2-.03-.29-.1-.22-.16-.27-.48-.11-.7 4.32-5.94-6.19-16.01-6.3-16.11-.16-.15-.2-.4-.1-.59l3.47-6.65c.13-.24.43-.34.67-.21s.34.43.21.67l-3.3 6.32c1.74 1.72 10.61 11.02 6.15 17.16-.1.13-.25.21-.4.21z" fill="#231f20"/><path d="m748.98 266.73s2.21 2.69 6.16-1.69l-3.99-7.66s-1.88 6.17-2.17 9.35z" fill="#231f20"/><path d="m750.92 268.04s-.05 0-.08 0c-1.43-.03-2.21-.96-2.24-1l-.13-.16.02-.2c.29-3.19 2.11-9.2 2.19-9.45l.36-1.17 4.72 9.05-.23.26c-1.6 1.77-3.15 2.67-4.6 2.67zm-1.42-1.5c.22.18.68.49 1.38.5h.03c1.08 0 2.32-.72 3.62-2.09l-3.26-6.25c-.54 1.88-1.53 5.55-1.78 7.83z" fill="#231f20"/><path d="m722.75 136.98s-3.82 15.3 6.3 18.77c0 0-8.27 9.06-20.91 10.11-6.99.58-13.9-2.13-18.34-7.56-2.73-3.35-4.91-8.11-4.69-14.69 0 0 .42.14 1.12.28 5.11.94 10.21-1.74 12.42-6.44l.22-.46 2.42-5.81 21.45 5.8z" fill="#fff"/><path d="m706.26 166.43c-6.6 0-12.79-2.84-16.85-7.82-3.39-4.15-5-9.2-4.8-15.02l.02-.68.64.22s.4.14 1.05.26c4.85.89 9.74-1.64 11.88-6.16l.22-.46 2.58-6.19 22.35 6.04-.12.48c-.04.15-3.59 14.89 5.97 18.17l.72.25-.51.56c-.08.09-8.55 9.21-21.23 10.27-.64.05-1.28.08-1.91.08zm-20.67-22.17c-.06 5.3 1.48 9.92 4.59 13.72 4.24 5.2 10.93 7.95 17.91 7.37 10.52-.88 18.06-7.48 20.05-9.42-8.55-3.63-6.52-16-5.99-18.6l-20.57-5.56-2.48 5.88c-2.33 4.94-7.67 7.7-12.97 6.72-.21-.04-.39-.08-.55-.12z" fill="#231f20"/><rect fill="#fff" height="63.73" rx="21.6" transform="matrix(-.83137263 -.55571534 .55571534 -.83137263 1250.93 600.56)" width="43.21" x="694.98" y="78.63"/><path d="m710.83 141.13c-4.33 0-8.56-1.27-12.24-3.73-10.13-6.77-12.87-20.53-6.09-30.66l11.4-17.06c6.77-10.13 20.53-12.87 30.66-6.09 4.91 3.28 8.25 8.28 9.4 14.07s-.02 11.68-3.3 16.59l-11.4 17.06c-3.28 4.91-8.28 8.25-14.07 9.4-1.45.29-2.91.43-4.35.43zm-11.68-4.56c4.69 3.13 10.31 4.25 15.84 3.15s10.3-4.28 13.43-8.97l11.4-17.06c3.13-4.69 4.25-10.31 3.15-15.84s-4.29-10.3-8.97-13.43c-9.67-6.47-22.81-3.86-29.27 5.82l-11.4 17.06c-6.47 9.67-3.86 22.81 5.82 29.27z" fill="#231f20"/><path d="m728.03 132.35s7.66 4.89 17.49-5.51c0 0 17.63-12.72 9.25-25.14 0 0 5.78-19.65-10.12-18.79 0 0-5.49-30.06-20.52-13.3 0 0-10.69-17.34-20.23 12.43l-1.47 10.84 1.89-2.92s6.8-8.49 12.87-5.31l13.12 7.01c3.46 1.85 5.91 5.23 6.39 9.13.23 1.91 0 3.91-1.28 5.56-1 1.31-1.64 2.85-1.71 4.5-.14 2.9-.05 6.89 1.4 7.62l.87 7.23-4.64 1.71-3.3 4.95z" fill="#fff"/><path d="m732.82 133.98c-3.1 0-5.02-1.18-5.06-1.2l-.43-.27 3.68-5.51 4.43-1.63-.79-6.58c-.62-.42-1.72-1.8-1.43-7.95.08-1.67.71-3.32 1.81-4.78 1.04-1.36 1.44-3.11 1.18-5.2-.45-3.66-2.74-6.93-6.13-8.75l-13.12-7.01c-5.63-2.95-12.18 5.1-12.24 5.18l-3.08 4.76 1.76-13.05c3.61-11.29 7.82-17.26 12.54-17.84 4.11-.5 7.21 3.23 8.25 4.67 3.64-3.9 7.08-5.42 10.22-4.54 7.05 1.99 10.11 15.47 10.65 18.12 3.97-.13 6.94 1.02 8.84 3.42 4.06 5.13 1.84 14.21 1.41 15.8 8.24 12.62-9.32 25.51-9.5 25.64-5.1 5.41-9.71 6.73-12.99 6.73zm-4.07-1.8c1.74.83 8.22 2.99 16.4-5.68.24-.19 17.21-12.64 9.2-24.52l-.13-.2.07-.23c.03-.1 2.87-10.01-1.18-15.12-1.75-2.21-4.59-3.22-8.43-3.02l-.44.02-.08-.43c-.03-.16-2.96-15.77-10.02-17.76-2.86-.81-6.11.78-9.63 4.71l-.45.5-.35-.57c-.03-.05-3.32-5.27-7.64-4.75-4.24.52-8.28 6.42-11.69 17.06l-1.15 8.54.68-1.05c.32-.4 7.16-8.81 13.52-5.48l13.13 7.02c3.68 1.96 6.16 5.52 6.65 9.51.29 2.36-.17 4.36-1.38 5.93-.98 1.29-1.54 2.75-1.61 4.21-.28 5.97.79 6.98 1.12 7.15l.24.12.95 7.88-4.86 1.79-2.91 4.36z" fill="#231f20"/><path d="m738.11 117.49-4.02-15.15c-.45-1.71-1.55-3.19-3.05-4.13l-29.47-18.36c-1.91-1.19-4.42-.63-5.65 1.26l-5.86 9.08c-1.98 3.08-1.3 7.16 1.57 9.42l4.03 3.17s7.08.06 14.6 8.15c0 0 7.51 11.27 13.87 7.23 0 0 6.78-3.62 8.74 2.52 0 0 2.17-2.44 5.24-3.21z" fill="#a6dced"/><path d="m732.65 121.68-.27-.84c-.47-1.48-1.28-2.46-2.41-2.92-2.42-.99-5.58.67-5.61.69-6.66 4.24-14.21-6.91-14.52-7.39-7.21-7.75-14.12-7.93-14.19-7.93h-.17s-4.16-3.28-4.16-3.28c-3.1-2.44-3.82-6.77-1.69-10.08l5.86-9.08c1.36-2.11 4.2-2.74 6.33-1.42l29.47 18.36c1.62 1.01 2.78 2.58 3.27 4.43l4.15 15.64-.49.12c-2.88.72-4.97 3.03-4.99 3.05l-.58.66zm-4.41-5.07c.7 0 1.42.11 2.11.39 1.21.49 2.12 1.43 2.71 2.8.8-.74 2.39-2.02 4.44-2.65l-3.89-14.67c-.42-1.6-1.43-2.96-2.83-3.83l-29.47-18.36c-1.67-1.04-3.89-.54-4.96 1.11l-5.86 9.08c-1.86 2.88-1.23 6.64 1.46 8.76l3.9 3.07c1.18.06 7.77.76 14.78 8.31.12.17 7.37 10.88 13.24 7.14.14-.07 2.16-1.14 4.38-1.14z" fill="#231f20"/><path d="m730.25 103.2-6.64 9.37c-.85 1.19-2.48 1.51-3.71.72l-27.38-17.67c-1.22-.79-1.56-2.42-.76-3.63l6.11-9.27c.78-1.18 2.35-1.52 3.55-.78l28.04 17.37c1.34.83 1.7 2.61.79 3.9z" fill="#fff"/><path d="m721.39 114.22c-.6 0-1.21-.17-1.75-.52l-27.38-17.67c-.7-.45-1.18-1.15-1.36-1.97-.17-.82-.01-1.65.45-2.35l6.11-9.27c.93-1.41 2.79-1.82 4.23-.93l28.04 17.37c.77.47 1.29 1.22 1.46 2.1.18.88 0 1.77-.53 2.51l-6.64 9.37c-.63.89-1.62 1.37-2.64 1.37zm-21.34-32.19c-.68 0-1.35.33-1.75.95l-6.11 9.27c-.31.47-.42 1.04-.3 1.59s.44 1.03.92 1.34l27.38 17.67c1.01.65 2.34.39 3.03-.58l6.64-9.37c.36-.51.49-1.12.37-1.73s-.48-1.13-1.01-1.45l-28.04-17.37c-.35-.22-.73-.32-1.11-.32z" fill="#231f20"/><path d="m704.47 114.33c-.1 0-.21-.03-.3-.1l-3.47-2.6c-.13-.1-.21-.25-.2-.42 0-.16.09-.31.23-.4l5.72-3.65c.23-.15.54-.08.69.15s.08.54-.15.69l-5.11 3.27 2.89 2.17c.22.17.27.48.1.7-.1.13-.25.2-.4.2z" fill="#231f20"/><ellipse cx="736.99" cy="124.09" fill="#fff" rx="6.79" ry="5.35" transform="matrix(.63594354 -.77173559 .77173559 .63594354 172.53 613.93)"/><path d="m735.6 130.84c-1.2 0-2.33-.36-3.25-1.12-1.22-1.01-1.88-2.55-1.83-4.34.04-1.74.74-3.52 1.96-5.01 2.56-3.1 6.66-3.96 9.15-1.91s2.43 6.24-.12 9.35c-1.62 1.96-3.85 3.02-5.9 3.02zm-2.35-9.83c-1.08 1.31-1.7 2.88-1.73 4.4-.03 1.48.49 2.73 1.47 3.54 2.06 1.7 5.54.9 7.74-1.77 2.21-2.68 2.32-6.24.26-7.94s-5.54-.9-7.74 1.77z" fill="#231f20"/><path d="m265.8 399.32c0 3.74-1.51 7.13-3.96 9.57-.98.98-2.12 1.82-3.37 2.46-1.86.96-3.97 1.5-6.2 1.5h-93.58c-2.83 0-5.45-.86-7.61-2.35-3.57-2.44-5.92-6.53-5.92-11.18h120.63z" fill="#fff"/><path d="m252.27 413.35h-93.58c-2.85 0-5.58-.84-7.89-2.43-3.84-2.62-6.14-6.95-6.14-11.6v-.5h121.63v.5c0 3.75-1.46 7.28-4.1 9.93-1.03 1.03-2.2 1.89-3.5 2.55-2 1.03-4.17 1.55-6.43 1.55zm-106.59-13.53c.16 4.12 2.26 7.93 5.69 10.27 2.15 1.48 4.68 2.26 7.33 2.26h93.58c2.1 0 4.11-.49 5.97-1.44 1.2-.62 2.29-1.41 3.25-2.37 2.34-2.34 3.68-5.42 3.8-8.72h-119.61z" fill="#231f20"/><path d="m267.49 505.86v5.64h-122.89v-5.64h6.48v-95.36c2.16 1.49 4.78 2.35 7.61 2.35h93.58c2.23 0 4.34-.54 6.2-1.5v94.51z" fill="#ffb769"/><path d="m267.99 511.99h-123.89v-6.64h6.48v-95.81l.78.54c2.15 1.48 4.68 2.26 7.33 2.26h93.58c2.1 0 4.11-.49 5.97-1.44l.73-.38v94.83h9.02zm-122.89-1h121.89v-4.64h-9.02v-94.22c-1.8.8-3.71 1.21-5.7 1.21h-93.58c-2.53 0-4.97-.67-7.11-1.93v94.94h-6.48z" fill="#231f20"/><path d="m258.47 506.36h-107.39c-.28 0-.5-.22-.5-.5s.22-.5.5-.5h107.39c.28 0 .5.22.5.5s-.22.5-.5.5z" fill="#231f20"/><path d="m250.58 506.52c-.28 0-.5-.22-.5-.5v-65.69c0-4.62-3.76-8.38-8.38-8.38h-28.1c-4.62 0-8.38 3.76-8.38 8.38v65.45c0 .28-.22.5-.5.5s-.5-.22-.5-.5v-65.45c0-5.17 4.21-9.38 9.38-9.38h28.1c5.17 0 9.38 4.21 9.38 9.38v65.69c0 .28-.22.5-.5.5z" fill="#231f20"/><path d="m240.43 481.55c-.28 0-.5-.22-.5-.5v-27.06c0-.28.22-.5.5-.5s.5.22.5.5v27.06c0 .28-.22.5-.5.5z" fill="#231f20"/><path d="m189.13 434.2h-25.93c-.28 0-.5-.22-.5-.5s.22-.5.5-.5h25.93c.28 0 .5.22.5.5s-.22.5-.5.5z" fill="#231f20"/><path d="m189.13 439.84h-25.93c-.28 0-.5-.22-.5-.5s.22-.5.5-.5h25.93c.28 0 .5.22.5.5s-.22.5-.5.5z" fill="#231f20"/><path d="m189.13 445.48h-25.93c-.28 0-.5-.22-.5-.5s.22-.5.5-.5h25.93c.28 0 .5.22.5.5s-.22.5-.5.5z" fill="#231f20"/><path d="m189.13 451.11h-25.93c-.28 0-.5-.22-.5-.5s.22-.5.5-.5h25.93c.28 0 .5.22.5.5s-.22.5-.5.5z" fill="#231f20"/><path d="m189.13 456.75h-25.93c-.28 0-.5-.22-.5-.5s.22-.5.5-.5h25.93c.28 0 .5.22.5.5s-.22.5-.5.5z" fill="#231f20"/><path d="m189.13 462.39h-25.93c-.28 0-.5-.22-.5-.5s.22-.5.5-.5h25.93c.28 0 .5.22.5.5s-.22.5-.5.5z" fill="#231f20"/><path d="m189.13 468.03h-25.93c-.28 0-.5-.22-.5-.5s.22-.5.5-.5h25.93c.28 0 .5.22.5.5s-.22.5-.5.5z" fill="#231f20"/><rect fill="#a6dced" height="52.99" rx="6.9" width="54.12" x="185.19" y="300.67"/><path d="m232.4 354.16h-40.31c-4.08 0-7.4-3.32-7.4-7.4v-39.18c0-4.08 3.32-7.4 7.4-7.4h40.31c4.08 0 7.4 3.32 7.4 7.4v39.18c0 4.08-3.32 7.4-7.4 7.4zm-40.31-52.99c-3.53 0-6.4 2.87-6.4 6.4v39.18c0 3.53 2.87 6.4 6.4 6.4h40.31c3.53 0 6.4-2.87 6.4-6.4v-39.18c0-3.53-2.87-6.4-6.4-6.4z" fill="#231f20"/><rect fill="#e6e7e8" height="52.99" rx="7.27" width="22.55" x="216.76" y="300.67"/><path d="m232.04 354.16h-8.02c-4.28 0-7.77-3.48-7.77-7.77v-38.46c0-4.28 3.48-7.77 7.77-7.77h8.02c4.28 0 7.77 3.48 7.77 7.77v38.46c0 4.28-3.48 7.77-7.77 7.77zm-8.02-52.99c-3.73 0-6.77 3.04-6.77 6.77v38.46c0 3.73 3.04 6.77 6.77 6.77h8.02c3.73 0 6.77-3.04 6.77-6.77v-38.46c0-3.73-3.04-6.77-6.77-6.77z" fill="#231f20"/><rect fill="#e6e7e8" height="108.23" rx="9.78" width="56.37" x="209.99" y="180.03"/><path d="m256.58 288.77h-36.8c-5.67 0-10.28-4.61-10.28-10.28v-88.67c0-5.67 4.61-10.28 10.28-10.28h36.8c5.67 0 10.28 4.61 10.28 10.28v88.67c0 5.67-4.61 10.28-10.28 10.28zm-36.8-108.23c-5.12 0-9.28 4.16-9.28 9.28v88.67c0 5.12 4.16 9.28 9.28 9.28h36.8c5.12 0 9.28-4.16 9.28-9.28v-88.67c0-5.12-4.16-9.28-9.28-9.28z" fill="#231f20"/><rect fill="#fff" height="99.21" rx="8.79" width="49.61" x="213.94" y="183.98"/><path d="m254.76 283.69h-32.03c-5.12 0-9.29-4.17-9.29-9.29v-81.64c0-5.12 4.17-9.29 9.29-9.29h32.03c5.12 0 9.29 4.17 9.29 9.29v81.64c0 5.12-4.17 9.29-9.29 9.29zm-32.03-99.21c-4.57 0-8.29 3.72-8.29 8.29v81.64c0 4.57 3.72 8.29 8.29 8.29h32.03c4.57 0 8.29-3.72 8.29-8.29v-81.64c0-4.57-3.72-8.29-8.29-8.29z" fill="#231f20"/><path d="m275.38 191.87h-32.4c-11.06 0-20.03 8.97-20.03 20.03v14.06c0 11.06 8.97 20.03 20.03 20.03h32.4z" fill="#a6dced"/><path d="m275.88 246.49h-32.9c-11.32 0-20.53-9.21-20.53-20.53v-14.06c0-11.32 9.21-20.53 20.53-20.53h32.9zm-32.9-54.12c-10.77 0-19.53 8.76-19.53 19.53v14.06c0 10.77 8.76 19.53 19.53 19.53h31.9v-53.12z" fill="#231f20"/><path d="m241.71 246.5c-.08 0-.17-.02-.25-.07-11.79-6.82-12.24-20.59-12.24-20.72v-12.41c0-13.66 13.37-21.77 13.51-21.85.24-.14.54-.06.69.17.14.24.06.54-.17.69-.13.08-13.02 7.91-13.02 20.99v12.4c0 .12.44 13.34 11.74 19.87.24.14.32.44.18.68-.09.16-.26.25-.43.25z" fill="#231f20"/><path d="m263.09 246.68c-.09 0-.19-.03-.27-.08-.45-.29-11.05-7.33-11.05-26.55 0-.16-.03-17.03 10.2-28.42.19-.21.5-.22.71-.04s.22.5.04.71c-9.97 11.09-9.95 27.58-9.95 27.75 0 18.64 10.49 25.64 10.6 25.71.23.15.3.46.15.69-.1.15-.26.23-.42.23z" fill="#231f20"/><path d="m104.98 222.31h37.93v23.68h-37.93c-1.46 0-2.65-1.19-2.65-2.65v-18.37c0-1.46 1.19-2.65 2.65-2.65z" fill="#a6dced"/><path d="m143.41 246.49h-38.43c-1.74 0-3.15-1.41-3.15-3.15v-18.37c0-1.74 1.42-3.15 3.15-3.15h38.43v24.68zm-38.43-23.68c-1.19 0-2.15.97-2.15 2.15v18.37c0 1.19.97 2.15 2.15 2.15h37.43v-22.68h-37.43z" fill="#231f20"/><path d="m142.91 222.31h6.76v23.68h-6.76z" fill="#e6e7e8"/><path d="m150.17 246.49h-7.76v-24.68h7.76zm-6.76-1h5.76v-22.68h-5.76z" fill="#231f20"/><path d="m178.99 142.27h59.75v12.4h-59.75z" fill="#a6dced"/><path d="m239.24 155.17h-60.75v-13.4h60.75zm-59.75-1h58.75v-11.4h-58.75z" fill="#231f20"/><path d="m238.74 142.27h3.38v12.4h-3.38z" fill="#e6e7e8"/><g fill="#231f20"><path d="m242.62 155.17h-4.38v-13.4h4.38zm-3.38-1h2.38v-11.4h-2.38z"/><path d="m210.56 378.4c-81.09 0-147.06-65.97-147.06-147.06s65.96-147.07 147.06-147.07 147.06 65.97 147.06 147.06-65.97 147.06-147.06 147.06zm0-293.13c-80.54 0-146.06 65.52-146.06 146.06s65.52 146.06 146.06 146.06 146.06-65.52 146.06-146.06-65.52-146.06-146.06-146.06z"/><path d="m210.56 372.76c-77.98 0-141.43-63.44-141.43-141.43s63.44-141.43 141.43-141.43 141.43 63.44 141.43 141.43-63.44 141.43-141.43 141.43zm0-281.85c-77.43 0-140.43 63-140.43 140.43s63 140.43 140.43 140.43 140.43-63 140.43-140.43-63-140.43-140.43-140.43z"/><path d="m211.12 305.11c-105.65 0-191.6-33.1-191.6-73.78s85.95-73.78 191.6-73.78 191.6 33.1 191.6 73.78-85.95 73.78-191.6 73.78zm0-146.56c-105.1 0-190.6 32.65-190.6 72.78s85.5 72.78 190.6 72.78 190.6-32.65 190.6-72.78-85.5-72.78-190.6-72.78z"/><path d="m211.53 399.81h-15.23l-72.41-112.4.84-.54 72.12 111.94h14.16l66.22-93.92.82.58z"/><path d="m74.7 416.73c-14.26 0-25.87-11.73-25.87-26.15s11.6-26.15 25.87-26.15 25.87 11.73 25.87 26.15-11.6 26.15-25.87 26.15zm0-51.3c-13.71 0-24.87 11.28-24.87 25.15s11.16 25.15 24.87 25.15 24.87-11.28 24.87-25.15-11.16-25.15-24.87-25.15z"/><path d="m82.35 415.44c-.06 0-.13-.01-.19-.04-30.16-12.58-23.24-45.18-23.17-45.51.06-.27.33-.44.6-.38s.44.33.38.6c-.07.32-6.8 32.11 22.58 44.37.25.11.38.4.27.65-.08.19-.27.31-.46.31z"/><path d="m90.57 410.77s-.05 0-.08 0c-.27-.04-.46-.3-.42-.57 5.03-32.23-22.29-43.64-22.56-43.75-.26-.1-.38-.39-.28-.65s.4-.38.65-.28c.28.11 28.33 11.8 23.18 44.83-.04.25-.25.42-.49.42z"/><path d="m54.97 400.94c-.18 0-.35-.1-.44-.27-.13-.25-.03-.55.21-.67l39.62-20.62c.25-.13.55-.03.67.21.13.25.03.55-.21.67l-39.62 20.62c-.07.04-.15.06-.23.06z"/><path d="m387.56 403.2s-.07 0-.11-.01l-58.63-13.53c-.15-.04-.28-.14-.34-.28s-.06-.31.02-.44l30.44-56.37c.11-.2.34-.3.57-.25l55.24 14.66c.14.04.26.14.33.28.06.14.06.29 0 .43l-27.06 55.24c-.09.17-.26.28-.45.28zm-57.87-14.37 57.6 13.29 26.62-54.34-54.27-14.4-29.94 55.45z"/><path d="m351.48 433.64c-.19 0-.36-.11-.44-.27l-22.55-43.97c-.13-.25-.03-.55.22-.67.25-.13.55-.03.67.22l22.11 43.11 28.75-55.29-21.31-43.74c-.12-.25-.02-.55.23-.67s.55-.02.67.23l21.42 43.97c.07.14.07.31 0 .45l-29.31 56.37c-.09.17-.26.27-.44.27z"/><path d="m408.98 446.04s-.07 0-.11-.01l-57.5-12.4c-.27-.06-.44-.32-.38-.59s.33-.44.59-.38l56.48 12.18-20.96-41.91c-.12-.25-.02-.55.22-.67.25-.12.55-.02.67.22l21.42 42.84c.09.17.07.38-.05.53-.1.12-.24.19-.4.19z"/><path d="m408.98 446.04c-.07 0-.15-.02-.22-.05-.25-.12-.35-.42-.23-.67l26.95-56.15-21.31-41.49c-.13-.25-.03-.55.22-.67.25-.13.55-.03.67.22l21.42 41.71c.07.14.07.3 0 .44l-27.06 56.37c-.09.18-.26.28-.45.28z"/><path d="m436.04 389.67s-.07 0-.11-.01l-55.24-12.4c-.27-.06-.44-.33-.38-.6s.33-.44.6-.38l55.24 12.4c.27.06.44.33.38.6-.05.23-.26.39-.49.39z"/><path d="m313.06 69.94c-1.06 0-1.88-.28-2.39-.89-3.55-4.18 10.49-19.96 25.49-32.67 8.19-6.94 16.43-12.84 23.2-16.6 4.94-2.74 11.23-5.52 13.21-3.19 3.55 4.18-10.49 19.96-25.49 32.67-12.83 10.87-27.74 20.68-34.02 20.68zm57.15-53.25c-2.07 0-5.72 1.38-10.37 3.96-6.72 3.73-14.9 9.59-23.04 16.49-17.79 15.08-27.65 28.58-25.37 31.26 2.27 2.68 17.21-4.83 35-19.91s27.65-28.58 25.37-31.26c-.31-.36-.85-.54-1.59-.54z"/><path d="m369.39 137.57c-1.01 0-1.83-.26-2.35-.87-3.55-4.18 10.49-19.96 25.49-32.67s32.86-23.98 36.41-19.79c3.55 4.18-10.49 19.96-25.49 32.67-8.19 6.94-16.43 12.84-23.2 16.6-3.64 2.02-8.01 4.06-10.86 4.06zm57.21-53.23c-4.76 0-18.02 7.39-33.43 20.44-17.79 15.08-27.65 28.58-25.37 31.26 1.16 1.38 5.64.1 11.96-3.42 6.72-3.73 14.9-9.59 23.04-16.49 17.79-15.08 27.65-28.58 25.37-31.26-.3-.36-.84-.54-1.57-.54z"/><path d="m367.42 136.88c-.14 0-.29-.06-.38-.18l-56.37-67.65c-.18-.21-.15-.53.06-.7.21-.18.53-.15.7.06l56.37 67.65c.18.21.15.53-.06.7-.09.08-.21.12-.32.12z"/><path d="m428.56 85.06c-.14 0-.29-.06-.38-.18l-56.37-67.65c-.18-.21-.15-.53.06-.7.21-.18.53-.15.7.06l56.37 67.65c.18.21.15.53-.06.7-.09.08-.21.12-.32.12z"/><path d="m401.09 97.67c-.14 0-.28-.06-.38-.18l-56.56-67.02c-.18-.21-.15-.53.06-.7.21-.18.53-.15.7.06l56.56 67.02c.18.21.15.53-.06.7-.09.08-.21.12-.32.12z"/><path d="m391.05 126.29c-.14 0-.28-.06-.38-.18l-56.87-66.97c-.18-.21-.15-.53.06-.71s.53-.15.71.06l56.87 66.97c.18.21.15.53-.06.71-.09.08-.21.12-.32.12z"/></g><circle cx="391.51" cy="125.92" fill="#a6dced" r="1.69"/><path d="m391.51 128.11c-1.21 0-2.19-.98-2.19-2.19s.98-2.19 2.19-2.19 2.19.98 2.19 2.19-.98 2.19-2.19 2.19zm0-3.38c-.66 0-1.19.53-1.19 1.19s.53 1.19 1.19 1.19 1.19-.53 1.19-1.19-.53-1.19-1.19-1.19z" fill="#231f20"/><circle cx="367.83" cy="136.06" fill="#a6dced" r="1.69"/><path d="m367.83 138.26c-1.21 0-2.19-.98-2.19-2.19s.98-2.19 2.19-2.19 2.19.98 2.19 2.19-.98 2.19-2.19 2.19zm0-3.38c-.66 0-1.19.53-1.19 1.19s.53 1.19 1.19 1.19 1.19-.53 1.19-1.19-.53-1.19-1.19-1.19z" fill="#231f20"/><circle cx="401.65" cy="97.73" fill="#a6dced" r="1.69"/><path d="m401.65 99.92c-1.21 0-2.19-.98-2.19-2.19s.98-2.19 2.19-2.19 2.19.98 2.19 2.19-.98 2.19-2.19 2.19zm0-3.38c-.66 0-1.19.53-1.19 1.19s.53 1.19 1.19 1.19 1.19-.53 1.19-1.19-.53-1.19-1.19-1.19z" fill="#231f20"/><circle cx="428.71" cy="84.2" fill="#a6dced" r="1.69"/><path d="m428.71 86.39c-1.21 0-2.19-.98-2.19-2.19s.98-2.19 2.19-2.19 2.19.98 2.19 2.19-.98 2.19-2.19 2.19zm0-3.38c-.66 0-1.19.53-1.19 1.19s.53 1.19 1.19 1.19 1.19-.53 1.19-1.19-.53-1.19-1.19-1.19z" fill="#231f20"/><circle cx="372.34" cy="17.69" fill="#a6dced" r="1.69"/><path d="m372.34 19.88c-1.21 0-2.19-.98-2.19-2.19s.98-2.19 2.19-2.19 2.19.98 2.19 2.19-.98 2.19-2.19 2.19zm0-3.38c-.66 0-1.19.53-1.19 1.19s.53 1.19 1.19 1.19 1.19-.53 1.19-1.19-.53-1.19-1.19-1.19z" fill="#231f20"/><circle cx="344.15" cy="30.09" fill="#a6dced" r="1.69"/><path d="m344.15 32.28c-1.21 0-2.19-.98-2.19-2.19s.98-2.19 2.19-2.19 2.19.98 2.19 2.19-.98 2.19-2.19 2.19zm0-3.38c-.66 0-1.19.53-1.19 1.19s.53 1.19 1.19 1.19 1.19-.53 1.19-1.19-.53-1.19-1.19-1.19z" fill="#231f20"/><circle cx="334.01" cy="58.27" fill="#a6dced" r="1.69"/><path d="m334.01 60.46c-1.21 0-2.19-.98-2.19-2.19s.98-2.19 2.19-2.19 2.19.98 2.19 2.19-.98 2.19-2.19 2.19zm0-3.38c-.66 0-1.19.53-1.19 1.19s.53 1.19 1.19 1.19 1.19-.53 1.19-1.19-.53-1.19-1.19-1.19z" fill="#231f20"/><circle cx="311.46" cy="68.42" fill="#a6dced" r="1.69"/><path d="m311.46 70.61c-1.21 0-2.19-.98-2.19-2.19s.98-2.19 2.19-2.19 2.19.98 2.19 2.19-.98 2.19-2.19 2.19zm0-3.38c-.66 0-1.19.53-1.19 1.19s.53 1.19 1.19 1.19 1.19-.53 1.19-1.19-.53-1.19-1.19-1.19z" fill="#231f20"/><circle cx="215.07" cy="376.77" fill="#a6dced" r="6.2"/><path d="m215.07 383.47c-3.69 0-6.7-3.01-6.7-6.7s3.01-6.7 6.7-6.7 6.7 3.01 6.7 6.7-3.01 6.7-6.7 6.7zm0-12.4c-3.14 0-5.7 2.56-5.7 5.7s2.56 5.7 5.7 5.7 5.7-2.56 5.7-5.7-2.56-5.7-5.7-5.7z" fill="#231f20"/><circle cx="63.99" cy="231.33" fill="#a6dced" r="6.2"/><path d="m63.99 238.03c-3.69 0-6.7-3.01-6.7-6.7s3.01-6.7 6.7-6.7 6.7 3.01 6.7 6.7-3.01 6.7-6.7 6.7zm0-12.4c-3.14 0-5.7 2.56-5.7 5.7s2.56 5.7 5.7 5.7 5.7-2.56 5.7-5.7-2.56-5.7-5.7-5.7z" fill="#231f20"/><circle cx="213.94" cy="83.64" fill="#a6dced" r="6.2"/><path d="m213.94 90.34c-3.69 0-6.7-3.01-6.7-6.7s3.01-6.7 6.7-6.7 6.7 3.01 6.7 6.7-3.01 6.7-6.7 6.7zm0-12.4c-3.14 0-5.7 2.56-5.7 5.7s2.56 5.7 5.7 5.7 5.7-2.56 5.7-5.7-2.56-5.7-5.7-5.7z" fill="#231f20"/><circle cx="358.25" cy="231.33" fill="#a6dced" r="6.2"/><path d="m358.25 238.03c-3.69 0-6.7-3.01-6.7-6.7s3.01-6.7 6.7-6.7 6.7 3.01 6.7 6.7-3.01 6.7-6.7 6.7zm0-12.4c-3.14 0-5.7 2.56-5.7 5.7s2.56 5.7 5.7 5.7 5.7-2.56 5.7-5.7-2.56-5.7-5.7-5.7z" fill="#231f20"/><path d="m76.28 179.36h-16.68l4.51 4.51-3.39 3.38-10.14-11.28 10.14-11.27 3.37 2.83-4.49 6.19 15.67.11-.01-14.65-4.5 4.51-3.39-3.39 11.28-10.14 11.27 10.14-2.83 3.38-6.19-4.5v6.76l.12 6.65h15.55l-4.51-4.51 3.38-3.38 10.15 11.27-10.15 11.28-3.37-2.83 4.5-6.19h-7.78l-6.76.11v16.69l4.51-4.51 3.38 3.38-11.27 10.14-11.28-10.14 2.84-3.37 6.18 4.5v-11.05z" fill="#ffb769"/><path d="m78.65 204.72-11.97-10.77 3.44-4.1 5.77 4.2v-10.06l-.1-4.12h-14.99l4.01 4.01-4.11 4.11-10.8-12 10.77-11.97 4.1 3.44-4.2 5.78 14.19.1v-12.95s-4.01 4.01-4.01 4.01l-4.11-4.11 12-10.8 11.97 10.77-3.44 4.1-5.77-4.2v5.78l.11 6.15h13.86l-4.01-4.01 4.11-4.11 10.8 12-10.77 11.97-4.1-3.44 4.2-5.77h-6.8l-6.26.11v14.98l4.01-4.01 4.11 4.11-12 10.8zm-10.58-10.87 10.58 9.52 10.55-9.49-2.66-2.66-5.01 5.01v-18.38l7.25-.12h8.77l-4.8 6.6 2.64 2.22 9.52-10.58-9.49-10.55-2.66 2.66 5.01 5.01h-17.25l-.12-7.14v-7.75l6.6 4.8 2.22-2.64-10.58-9.52-10.55 9.49 2.66 2.66 5.01-5.01v16.37s-17.14-.13-17.14-.13l4.8-6.6-2.64-2.22-9.52 10.58 9.49 10.55 2.66-2.66-5.01-5.01h18.38l.13 5.11v12.04l-6.6-4.8-2.22 2.64z" fill="#231f20"/><ellipse cx="275.38" cy="218.93" fill="#a6dced" rx="16.35" ry="27.06"/><path d="m275.38 246.49c-9.29 0-16.85-12.36-16.85-27.56s7.56-27.56 16.85-27.56 16.85 12.36 16.85 27.56-7.56 27.56-16.85 27.56zm0-54.12c-8.74 0-15.85 11.91-15.85 26.56s7.11 26.56 15.85 26.56 15.85-11.91 15.85-26.56-7.11-26.56-15.85-26.56z" fill="#231f20"/><ellipse cx="275.38" cy="218.93" fill="#231f20" rx="3.95" ry="6.76"/><path d="m275.38 226.19c-2.49 0-4.45-3.19-4.45-7.26s1.95-7.26 4.45-7.26 4.45 3.19 4.45 7.26-1.95 7.26-4.45 7.26zm0-13.53c-1.87 0-3.45 2.87-3.45 6.26s1.58 6.26 3.45 6.26 3.45-2.87 3.45-6.26-1.58-6.26-3.45-6.26z" fill="#231f20"/><circle cx="359.37" cy="332.8" fill="#a6dced" r="2.25"/><path d="m359.37 335.55c-1.52 0-2.75-1.24-2.75-2.75s1.24-2.75 2.75-2.75 2.75 1.24 2.75 2.75-1.24 2.75-2.75 2.75zm0-4.51c-.97 0-1.75.79-1.75 1.75s.79 1.75 1.75 1.75 1.75-.79 1.75-1.75-.79-1.75-1.75-1.75z" fill="#231f20"/><circle cx="351.48" cy="433.14" fill="#a6dced" r="2.25"/><path d="m351.48 435.89c-1.52 0-2.75-1.24-2.75-2.75s1.24-2.75 2.75-2.75 2.75 1.24 2.75 2.75-1.24 2.75-2.75 2.75zm0-4.51c-.97 0-1.75.79-1.75 1.75s.79 1.75 1.75 1.75 1.75-.79 1.75-1.75-.79-1.75-1.75-1.75z" fill="#231f20"/><circle cx="328.93" cy="389.17" fill="#a6dced" r="2.25"/><path d="m328.93 391.92c-1.52 0-2.75-1.24-2.75-2.75s1.24-2.75 2.75-2.75 2.75 1.24 2.75 2.75-1.24 2.75-2.75 2.75zm0-4.51c-.97 0-1.75.79-1.75 1.75s.79 1.75 1.75 1.75 1.75-.79 1.75-1.75-.79-1.75-1.75-1.75z" fill="#231f20"/><circle cx="387.56" cy="402.7" fill="#a6dced" r="2.25"/><path d="m387.56 405.45c-1.52 0-2.75-1.24-2.75-2.75s1.24-2.75 2.75-2.75 2.75 1.24 2.75 2.75-1.24 2.75-2.75 2.75zm0-4.51c-.97 0-1.75.79-1.75 1.75s.79 1.75 1.75 1.75 1.75-.79 1.75-1.75-.79-1.75-1.75-1.75z" fill="#231f20"/><circle cx="408.98" cy="445.54" fill="#a6dced" r="2.25"/><path d="m408.98 448.3c-1.52 0-2.75-1.24-2.75-2.75s1.24-2.75 2.75-2.75 2.75 1.24 2.75 2.75-1.24 2.75-2.75 2.75zm0-4.51c-.97 0-1.75.79-1.75 1.75s.79 1.75 1.75 1.75 1.75-.79 1.75-1.75-.79-1.75-1.75-1.75z" fill="#231f20"/><circle cx="380.8" cy="376.77" fill="#a6dced" r="2.25"/><path d="m380.8 379.52c-1.52 0-2.75-1.24-2.75-2.75s1.24-2.75 2.75-2.75 2.75 1.24 2.75 2.75-1.24 2.75-2.75 2.75zm0-4.51c-.97 0-1.75.79-1.75 1.75s.79 1.75 1.75 1.75 1.75-.79 1.75-1.75-.79-1.75-1.75-1.75z" fill="#231f20"/><circle cx="435.04" cy="389.17" fill="#a6dced" r="2.25"/><path d="m435.04 391.92c-1.52 0-2.75-1.24-2.75-2.75s1.24-2.75 2.75-2.75 2.75 1.24 2.75 2.75-1.24 2.75-2.75 2.75zm0-4.51c-.97 0-1.75.79-1.75 1.75s.79 1.75 1.75 1.75 1.75-.79 1.75-1.75-.79-1.75-1.75-1.75z" fill="#231f20"/><circle cx="414.62" cy="347.46" fill="#a6dced" r="2.25"/><path d="m414.62 350.21c-1.52 0-2.75-1.24-2.75-2.75s1.24-2.75 2.75-2.75 2.75 1.24 2.75 2.75-1.24 2.75-2.75 2.75zm0-4.51c-.97 0-1.75.79-1.75 1.75s.79 1.75 1.75 1.75 1.75-.79 1.75-1.75-.79-1.75-1.75-1.75z" fill="#231f20"/><circle cx="63.3" cy="367.31" fill="#a6dced" r="2.82"/><path d="m63.3 370.63c-1.83 0-3.32-1.49-3.32-3.32s1.49-3.32 3.32-3.32 3.32 1.49 3.32 3.32-1.49 3.32-3.32 3.32zm0-5.64c-1.28 0-2.32 1.04-2.32 2.32s1.04 2.32 2.32 2.32 2.32-1.04 2.32-2.32-1.04-2.32-2.32-2.32z" fill="#231f20"/><circle cx="52.15" cy="402.14" fill="#a6dced" r="2.82"/><path d="m52.15 405.45c-1.83 0-3.32-1.49-3.32-3.32s1.49-3.32 3.32-3.32 3.32 1.49 3.32 3.32-1.49 3.32-3.32 3.32zm0-5.64c-1.28 0-2.32 1.04-2.32 2.32s1.04 2.32 2.32 2.32 2.32-1.04 2.32-2.32-1.04-2.32-2.32-2.32z" fill="#231f20"/><circle cx="62.3" cy="396.5" fill="#a6dced" r="2.82"/><path d="m62.3 399.82c-1.83 0-3.32-1.49-3.32-3.32s1.49-3.32 3.32-3.32 3.32 1.49 3.32 3.32-1.49 3.32-3.32 3.32zm0-5.64c-1.28 0-2.32 1.04-2.32 2.32s1.04 2.32 2.32 2.32 2.32-1.04 2.32-2.32-1.04-2.32-2.32-2.32z" fill="#231f20"/><circle cx="87.1" cy="384.1" fill="#a6dced" r="2.82"/><path d="m87.1 387.42c-1.83 0-3.32-1.49-3.32-3.32s1.49-3.32 3.32-3.32 3.32 1.49 3.32 3.32-1.49 3.32-3.32 3.32zm0-5.64c-1.28 0-2.32 1.04-2.32 2.32s1.04 2.32 2.32 2.32 2.32-1.04 2.32-2.32-1.04-2.32-2.32-2.32z" fill="#231f20"/><circle cx="87.1" cy="413.41" fill="#a6dced" r="2.82"/><path d="m87.1 416.73c-1.83 0-3.32-1.49-3.32-3.32s1.49-3.32 3.32-3.32 3.32 1.49 3.32 3.32-1.49 3.32-3.32 3.32zm0-5.64c-1.28 0-2.32 1.04-2.32 2.32s1.04 2.32 2.32 2.32 2.32-1.04 2.32-2.32-1.04-2.32-2.32-2.32z" fill="#231f20"/><circle cx="97.25" cy="378.46" fill="#a6dced" r="2.82"/><path d="m97.25 381.78c-1.83 0-3.32-1.49-3.32-3.32s1.49-3.32 3.32-3.32 3.32 1.49 3.32 3.32-1.49 3.32-3.32 3.32zm0-5.64c-1.28 0-2.32 1.04-2.32 2.32s1.04 2.32 2.32 2.32 2.32-1.04 2.32-2.32-1.04-2.32-2.32-2.32z" fill="#231f20"/><path d="m701.26 125.75c-1.14 0-2.19-.24-3.14-.72-2.75-1.39-3.6-4.27-3.64-4.39-.08-.27.08-.54.34-.62s.54.08.62.34c0 .03.78 2.6 3.14 3.78 1.68.84 3.77.8 6.21-.11.26-.1.55.03.64.29.1.26-.03.55-.29.64-1.39.52-2.68.78-3.88.78z" fill="#231f20"/><path d="m734.93 126.47c-.12 0-.25-.05-.35-.14-.2-.19-.21-.51-.02-.71l4-4.18c.19-.2.51-.21.71-.02s.21.51.02.71l-4 4.18c-.1.1-.23.15-.36.15z" fill="#231f20"/></svg>